<?xml version="1.0" encoding="utf-8"?>
<!-- Generator: Adobe Illustrator 27.5.0, SVG Export Plug-In . SVG Version: 6.00 Build 0)  -->
<svg version="1.1" id="Layer_1" xmlns="http://www.w3.org/2000/svg" xmlns:xlink="http://www.w3.org/1999/xlink" x="0px" y="50px"
	 viewBox="0 0 450 450" style="enable-background:new 0 0 450 450; height:5rem" xml:space="preserve">

<path style="fill:#FFFCDF;" d="M21.782,323.856c0,0.424-0.344,0.768-0.768,0.768h-1.389c-0.424,0-0.768-0.344-0.768-0.768l0,0
	c0-0.424,0.344-0.768,0.768-0.768h1.389C21.438,323.088,21.782,323.432,21.782,323.856L21.782,323.856z"/>


<g>
	<rect style="fill:transparent;"/>


	<rect y="188.913" style="fill:#67432D;" width="450" height="15.5"/>
	<rect y="188.913" style="fill:#31404F;" width="450" height="7.75"/>
	<g>
		<g>
			<polygon style="fill:#F6871E;" points="248.997,165.15 248.971,165.151 248.971,162.625 242.149,162.625 242.149,168.678 
				242.727,168.678 243.126,181.392 243.929,183.903 248.86,183.903 249.5,181.15 			"/>
			<polygon style="fill:#FDB813;" points="235.331,162.625 235.331,168.637 234.939,181.126 235.577,183.903 240.508,183.903 
				241.312,181.392 241.711,168.678 242.149,168.678 242.149,162.625 			"/>
		</g>
		<rect x="235.577" y="183.903" style="fill:#333333;" width="4.931" height="3.478"/>
		<rect x="234.735" y="188.696" style="fill:#333333;" width="6.615" height="0.667"/>
		<rect x="243.928" y="183.903" style="fill:#333333;" width="4.931" height="3.478"/>
		<g>
			<path style="fill:#464646;" d="M243.085,188.696h3.308v-3.307C244.566,185.388,243.085,186.869,243.085,188.696z"/>
			<path style="fill:#404040;" d="M246.393,185.388L246.393,185.388v3.307h3.307C249.701,186.869,248.22,185.388,246.393,185.388z"
				/>
		</g>
		<rect x="243.085" y="188.696" style="fill:#333333;" width="6.615" height="0.667"/>
		<g>
			<rect x="239.451" y="140.299" style="fill:#D49A6C;" width="2.698" height="5.651"/>
			<rect x="242.149" y="140.299" style="fill:#EAC3A4;" width="2.698" height="5.651"/>
		</g>
		<polygon style="fill:#FFD38C;" points="249.118,164.091 248.824,144.458 244.846,143.345 242.147,144.508 239.451,143.345 
			235.474,144.458 235.18,164.091 		"/>
		<polygon style="fill:#333333;" points="249.091,162.326 249.055,159.91 235.242,159.91 235.206,162.326 		"/>
		<g>
			<path style="fill:#D49A6C;" d="M227.081,164.168c-0.389,1.114,0.198,2.333,1.312,2.722c1.114,0.389,2.333-0.198,2.722-1.312
				l0.034-0.097l-4.027-1.429L227.081,164.168z"/>
		</g>
		<g>
			<path style="fill:#D49A6C;" d="M257.125,163.908l-4.027,1.429l0.084,0.241c0.39,1.114,1.608,1.701,2.722,1.312
				c1.114-0.389,1.701-1.608,1.312-2.722L257.125,163.908z"/>
		</g>
		<polygon style="fill:#37518A;" points="233.6,154.522 233.6,158.08 233.736,158.08 234.98,154.522 		"/>
		<polygon style="fill:#37518A;" points="231.697,150.964 230.453,154.522 233.6,154.522 233.6,150.964 		"/>
		<polygon style="fill:#304678;" points="235.339,153.498 235.323,154.522 237.152,154.522 237.152,150.964 233.6,150.964 
			233.6,154.522 234.98,154.522 		"/>
		<rect x="237.152" y="158.08" style="fill:#37518A;" width="3.552" height="3.558"/>
		<polygon style="fill:#304678;" points="233.6,147.406 232.941,147.406 231.697,150.964 233.6,150.964 		"/>
		<rect x="240.704" y="158.08" style="fill:#304678;" width="3.552" height="3.558"/>
		<polygon style="fill:#37518A;" points="254.912,164.693 257.125,163.908 256.332,161.639 254.912,161.639 		"/>
		<path style="fill:#37518A;" d="M233.6,145.567c-0.034,0.071-0.066,0.144-0.093,0.221l-0.566,1.618h0.658V145.567z"/>
		<rect x="237.152" y="154.522" style="fill:#304678;" width="3.552" height="3.558"/>
		<polygon style="fill:#37518A;" points="253.098,165.337 253.494,165.197 253.049,165.197 		"/>
		<polygon style="fill:#37518A;" points="231.149,165.481 231.248,165.197 230.347,165.197 		"/>
		<polygon style="fill:#37518A;" points="233.6,158.471 233.736,158.08 233.6,158.08 		"/>
		<polygon style="fill:#37518A;" points="235.323,154.522 235.27,158.08 237.152,158.08 237.152,154.522 		"/>
		<polygon style="fill:#37518A;" points="227.122,164.052 230.048,165.09 230.048,161.639 227.965,161.639 		"/>
		<rect x="237.152" y="150.964" style="fill:#37518A;" width="3.552" height="3.558"/>
		<polygon style="fill:#304678;" points="251.36,160.365 251.36,158.08 250.561,158.08 		"/>
		<path style="fill:#304678;" d="M250.791,145.788c-0.337-0.965-1.297-1.533-2.271-1.415l-0.711-0.199v3.232h3.548L250.791,145.788z
			"/>
		<rect x="240.704" y="154.522" style="fill:#37518A;" width="3.552" height="3.558"/>
		<rect x="244.256" y="147.406" style="fill:#304678;" width="3.552" height="3.558"/>
		<rect x="240.704" y="147.406" style="fill:#37518A;" width="3.552" height="3.558"/>
		<rect x="237.152" y="147.406" style="fill:#304678;" width="3.552" height="3.558"/>
		<rect x="240.704" y="150.964" style="fill:#304678;" width="3.552" height="3.558"/>
		<rect x="233.6" y="147.406" style="fill:#37518A;" width="3.552" height="3.558"/>
		<rect x="244.256" y="150.964" style="fill:#37518A;" width="3.552" height="3.558"/>
		<path style="fill:#304678;" d="M237.152,147.406v-3.417l-1.374,0.384c-0.897-0.109-1.781,0.366-2.179,1.195v1.839H237.152z"/>
		<polygon style="fill:#37518A;" points="250.561,158.08 251.36,158.08 251.36,154.522 249.317,154.522 		"/>
		<polygon style="fill:#304678;" points="233.6,158.08 233.6,154.522 230.453,154.522 230.048,155.682 230.048,158.08 		"/>
		<polygon style="fill:#37518A;" points="230.048,155.682 229.209,158.08 230.048,158.08 		"/>
		<polygon style="fill:#37518A;" points="247.808,164.091 249.118,164.091 249.081,161.639 247.808,161.639 		"/>
		<polygon style="fill:#304678;" points="247.808,158.08 247.808,161.639 249.081,161.639 249.028,158.08 		"/>
		<polygon style="fill:#304678;" points="254.912,161.639 256.332,161.639 255.088,158.08 254.912,158.08 		"/>
		<polygon style="fill:#304678;" points="229.209,158.08 227.965,161.639 230.048,161.639 230.048,158.08 		"/>
		<polygon style="fill:#37518A;" points="251.36,158.08 251.36,160.365 251.805,161.639 254.912,161.639 254.912,158.08 		"/>
		<polygon style="fill:#37518A;" points="237.152,147.406 240.704,147.406 240.704,143.886 240.615,143.848 237.655,143.848 
			237.152,143.988 		"/>
		<polygon style="fill:#37518A;" points="235.217,161.639 235.18,164.091 237.152,164.091 237.152,161.639 		"/>
		<polygon style="fill:#37518A;" points="233.6,158.08 230.048,158.08 230.048,161.639 232.492,161.639 233.6,158.471 		"/>
		<polygon style="fill:#304678;" points="237.152,158.08 235.27,158.08 235.217,161.639 237.152,161.639 		"/>
		<rect x="244.256" y="158.08" style="fill:#37518A;" width="3.552" height="3.558"/>
		<rect x="244.256" y="161.639" style="fill:#304678;" width="3.552" height="2.452"/>
		<polygon style="fill:#304678;" points="230.048,161.639 230.048,165.09 230.347,165.197 231.248,165.197 232.492,161.639 		"/>
		<rect x="237.152" y="161.639" style="fill:#304678;" width="3.552" height="2.452"/>
		<polygon style="fill:#37518A;" points="251.36,154.522 253.844,154.522 252.6,150.964 251.36,150.964 		"/>
		<polygon style="fill:#37518A;" points="252.6,150.964 251.36,147.417 251.36,150.964 		"/>
		<polygon style="fill:#304678;" points="247.808,150.964 247.808,154.522 248.974,154.522 248.959,153.498 249.317,154.522 
			251.36,154.522 251.36,150.964 		"/>
		<polygon style="fill:#37518A;" points="247.808,147.406 247.808,150.964 251.36,150.964 251.36,147.417 251.356,147.406 		"/>
		<rect x="244.256" y="154.522" style="fill:#304678;" width="3.552" height="3.558"/>
		<polygon style="fill:#37518A;" points="247.808,154.522 247.808,158.08 249.028,158.08 248.974,154.522 		"/>
		<rect x="240.704" y="161.639" style="fill:#37518A;" width="3.552" height="2.452"/>
		<polygon style="fill:#37518A;" points="244.256,147.406 247.808,147.406 247.808,144.174 246.643,143.848 244.256,143.848 		"/>
		<polygon style="fill:#304678;" points="240.704,143.886 240.704,147.406 244.256,147.406 244.256,143.848 243.68,143.848 
			242.147,144.508 		"/>
		<polygon style="fill:#304678;" points="254.912,161.639 251.805,161.639 253.049,165.197 253.494,165.197 254.912,164.693 		"/>
		<polygon style="fill:#304678;" points="251.36,154.522 251.36,158.08 254.912,158.08 254.912,157.577 253.844,154.522 		"/>
		<polygon style="fill:#37518A;" points="255.088,158.08 254.912,157.577 254.912,158.08 		"/>
		<g>
			<rect x="236.102" y="148.409" style="fill:#FDB813;" width="6.046" height="14.246"/>
			<rect x="242.149" y="148.409" style="fill:#F6871E;" width="5.659" height="14.246"/>
		</g>
		<polygon style="fill:#393C41;" points="235.139,161.999 235.108,164.102 249.19,164.102 249.158,161.999 		"/>
		<path style="fill:#FAFBFD;" d="M240.749,161.443c-0.888,0-1.608,0.72-1.608,1.608c0,0.888,0.72,1.608,1.608,1.608h1.4v-3.216
			H240.749z"/>
		<path style="fill:#DCDCDC;" d="M243.549,161.443h-1.4v3.216h1.4c0.888,0,1.608-0.72,1.608-1.608
			C245.157,162.163,244.437,161.443,243.549,161.443z"/>
		<polygon style="fill:#FDB813;" points="238.182,143.686 236.102,144.282 236.102,148.409 238.182,148.409 		"/>
		<polygon style="fill:#F6871E;" points="247.808,144.174 245.729,143.592 245.729,148.409 247.808,148.409 		"/>
		<g>
			<polygon style="fill:#2C406E;" points="239.663,146.603 237.268,143.95 239.452,143.345 242.147,144.508 			"/>
			<polygon style="fill:#2C406E;" points="244.634,146.603 247.03,143.95 244.843,143.345 242.147,144.508 			"/>
		</g>
		<g>
			<path style="fill:#DCDCDC;" d="M238.187,150.098c0-0.401-0.325-0.725-0.725-0.725c-0.401,0-0.725,0.325-0.725,0.725
				c0,0.401,0.325,0.725,0.725,0.725C237.862,150.823,238.187,150.499,238.187,150.098z"/>
			<path style="fill:#DCDCDC;" d="M247.174,150.098c0-0.401-0.325-0.725-0.725-0.725c-0.401,0-0.726,0.325-0.726,0.725
				c0,0.401,0.325,0.725,0.726,0.725C246.85,150.823,247.174,150.499,247.174,150.098z"/>
		</g>
		<g>
			<path style="fill:#464646;" d="M234.735,188.696h3.307v-3.307C236.216,185.388,234.735,186.869,234.735,188.696z"/>
			<path style="fill:#404040;" d="M238.043,185.388L238.043,185.388l0,3.307h3.308C241.35,186.869,239.869,185.388,238.043,185.388z
				"/>
		</g>
		<polygon style="fill:#37518A;" points="239.451,143.345 237.655,143.848 240.615,143.848 		"/>
		<polygon style="fill:#37518A;" points="244.256,143.6 243.68,143.848 244.256,143.848 		"/>
		<polygon style="fill:#37518A;" points="246.643,143.848 244.846,143.345 244.256,143.6 244.256,143.848 		"/>
		<g>
			<path style="fill:#EAC3A4;" d="M246.803,132.963v5.534c0,1.883-1.529,3.412-3.412,3.412h-2.489c-1.883,0-3.412-1.529-3.412-3.412
				v-5.534c0-1.883,1.529-3.412,3.412-3.412h2.489C245.275,129.55,246.803,131.079,246.803,132.963z"/>
			<g>
				<path style="fill:#140B05;" d="M240.152,137.04c0-0.302-0.245-0.547-0.547-0.547c-0.302,0-0.547,0.245-0.547,0.547
					c0,0.302,0.245,0.547,0.547,0.547C239.907,137.587,240.152,137.342,240.152,137.04z"/>
				<path style="fill:#140B05;" d="M245.054,137.04c0-0.302-0.245-0.547-0.547-0.547c-0.302,0-0.547,0.245-0.547,0.547
					c0,0.302,0.245,0.547,0.547,0.547C244.809,137.587,245.054,137.342,245.054,137.04z"/>
			</g>
			<g>
				<g>
					<g>
						<path style="fill:#7D4C2E;" d="M246.803,132.963v3.058c-0.098,0.128-0.22,0.232-0.361,0.312
							c-1.437-1.822-1.719-2.531-1.596-2.69l-1.559-0.575c-1.015,2.636-3.437,3.044-5.534,3.307
							c-0.098-0.043-0.184-0.098-0.263-0.171v-3.241c0-1.883,1.529-3.412,3.412-3.412h2.489
							C245.275,129.55,246.803,131.079,246.803,132.963z"/>
					</g>
				</g>
			</g>
		</g>
		<g>
			<path style="fill:#2C406E;" d="M243.52,128.769h-2.746c-2.078,0-3.765,1.687-3.765,3.765v1.795c1.23,1.204,3.075,1.97,5.138,1.97
				s3.908-0.766,5.138-1.97v-1.795C247.285,130.456,245.598,128.769,243.52,128.769z"/>
		</g>
		<g>
			<path style="fill:#37518A;" d="M237.008,133.688v0.641c1.23,1.204,3.075,1.97,5.138,1.97s3.908-0.766,5.138-1.97v-0.641H237.008z
				"/>
		</g>
	</g>
	<g>
		<g>
			<path style="fill:#FF3100;" d="M55.243,136.272c-0.5,0-0.905,0.405-0.905,0.905s0.405,0.905,0.905,0.905h8.255v-1.811H55.243z"/>
			<path style="fill:#E02B00;" d="M71.753,136.272h-8.255v1.811h8.255c0.5,0,0.905-0.405,0.905-0.905S72.253,136.272,71.753,136.272
				z"/>
		</g>
		<g>
			<path style="fill:#31404F;" d="M44.558,180.8c-0.094,0-0.189-0.001-0.285-0.004c-2.503-0.07-4.273-0.982-5.261-2.71
				c-2.343-4.098,0.299-11.847,3.272-17.238c3.638-6.595,2.222-13.154,2.207-13.219c-0.05-0.221,0.089-0.441,0.31-0.491
				c0.221-0.05,0.441,0.088,0.491,0.31c0.063,0.279,1.505,6.919-2.289,13.797c-3.098,5.616-5.313,12.875-3.278,16.434
				c0.836,1.462,2.374,2.235,4.571,2.297c2.089,0.057,3.591-0.588,4.451-1.923c2.33-3.613-0.39-11.272-0.859-12.235
				c-0.062-0.127-0.054-0.277,0.021-0.397c0.075-0.12,0.206-0.193,0.348-0.193h5.803c0.227,0,0.41,0.184,0.41,0.41
				c0,0.227-0.184,0.411-0.41,0.411h-5.206c0.746,2.032,2.933,8.805,0.583,12.449C48.452,180.027,46.812,180.8,44.558,180.8z"/>
		</g>
		<g>
			<g>
				<path style="fill:#212C36;" d="M45.938,149.017l0.008,0.588c0.004,0.265-0.208,0.482-0.473,0.486l-0.664,0.009
					c-0.265,0.004-0.482-0.208-0.486-0.473l-0.008-0.588L45.938,149.017z"/>
			</g>
			<g>
				<path style="fill:#212C36;" d="M47.279,148.817c-0.176-0.328-0.644-1.281-0.69-1.735c-0.003-0.033,0-0.079,0.056-0.144
					c0.227-0.262,0.937-0.417,1.086-0.424l-0.009-0.48c-0.094,0.001-1.036,0.136-1.431,0.579c-0.136,0.153-0.198,0.331-0.18,0.517
					c0.065,0.642,0.717,1.862,0.745,1.914L47.279,148.817z"/>
			</g>
			<g>
				<g>
					<path style="fill:#AAB2BD;" d="M47.645,142.356l1.133-1.843l2.244-1.251l-0.414-0.743l-2.341,1.305
						c-0.064,0.035-0.117,0.087-0.155,0.149l-1.192,1.938L47.645,142.356z"/>
				</g>
			</g>
			<g>
				<g>
					<g>
						<path style="fill:#FF3100;" d="M43.864,144.756l0.055,4.053c0.004,0.265,0.221,0.477,0.486,0.473l3.41-0.047
							c0.265-0.004,0.477-0.221,0.473-0.486l-0.055-4.053c-0.004-0.265-0.221-0.477-0.486-0.473l-3.41,0.046
							C44.072,144.273,43.86,144.491,43.864,144.756z M45.383,145.718c-0.002-0.139,0.109-0.253,0.248-0.255l1.67-0.023
							c0.139-0.002,0.253,0.109,0.255,0.248l0.038,2.82c0.002,0.139-0.109,0.253-0.248,0.255l-1.67,0.023
							c-0.139,0.002-0.253-0.109-0.255-0.248L45.383,145.718z"/>
					</g>
				</g>
			</g>
			<g>
				<polygon style="fill:#212C36;" points="43.867,144.956 43.276,144.085 43.925,142.593 46.137,141.431 48.249,142.765 
					48.235,144.896 				"/>
			</g>
			<g>
				<path style="fill:#212C36;" d="M46.296,141.785l0.316-0.459c0.077-0.113,0.231-0.141,0.344-0.064l1.137,0.782
					c0.113,0.077,0.141,0.231,0.064,0.344l-0.316,0.459L46.296,141.785z"/>
			</g>
		</g>
		<rect x="50.209" y="163.253" style="fill:#FF3100;" width="3.882" height="4.769"/>
		<g>
			<rect x="51.531" y="157.512" style="fill:#FF3100;" width="11.966" height="31.338"/>
			<path style="fill:#FFB60D;" d="M63.498,136.992H53.259c-0.954,0-1.728,0.774-1.728,1.728v18.792h11.966V136.992z"/>
			<path style="fill:#FFCC00;" d="M75.464,157.512V138.72c0-0.954-0.774-1.728-1.728-1.728H63.498v20.52H75.464z"/>
			<rect x="63.498" y="157.512" style="fill:#E02B00;" width="11.967" height="31.338"/>
		</g>
		<rect x="63.498" y="141.984" style="fill:#DEF3EE;" width="0.024" height="12.935"/>
		<g>
			<path style="fill:#FEFBFF;" d="M63.498,140.785h-8.605c-0.954,0-1.728,0.774-1.728,1.728v7.237h10.333V140.785z"/>
			<path style="fill:#DEF3EE;" d="M63.498,148.902H53.164v3.114c0,0.954,0.774,1.728,1.728,1.728h8.63v-0.024h-0.025V148.902z"/>
			<path style="fill:#DEF3EE;" d="M63.522,149.749h10.333v-7.261c0-0.954-0.774-1.728-1.728-1.728h-8.63v0.024h0.025V149.749z"/>
			<path style="fill:#FEFBFF;" d="M63.522,148.902v4.818h8.605c0.954,0,1.728-0.774,1.728-1.728v-3.09H63.522z"/>
		</g>
		<rect x="58.749" y="149.947" style="fill:#31404F;" width="2.245" height="2.752"/>
		<rect x="66.002" y="149.947" style="fill:#212C36;" width="2.245" height="2.752"/>
		<rect x="55.122" y="149.947" style="fill:#31404F;" width="2.245" height="2.752"/>
		<rect x="69.629" y="149.947" style="fill:#212C36;" width="2.244" height="2.752"/>
		<g>
			<rect x="62.375" y="149.947" style="fill:#31404F;" width="1.122" height="2.752"/>
			<rect x="63.498" y="149.947" style="fill:#212C36;" width="1.122" height="2.752"/>
		</g>
		<g>
			<rect x="55.533" y="143.025" style="fill:#31404F;" width="7.957" height="4.228"/>
			<rect x="63.491" y="143.025" style="fill:#212C36;" width="7.972" height="4.228"/>
		</g>
	</g>
	<g>
		<g>
			<path style="fill:#FF3100;" d="M177.797,136.272c-0.5,0-0.905,0.405-0.905,0.905s0.405,0.905,0.905,0.905h8.255v-1.811H177.797z"
				/>
			<path style="fill:#E02B00;" d="M194.307,136.272h-8.255v1.811h8.255c0.5,0,0.905-0.405,0.905-0.905
				S194.807,136.272,194.307,136.272z"/>
		</g>
		<g>
			<path style="fill:#31404F;" d="M167.112,180.8c-0.094,0-0.189-0.001-0.285-0.004c-2.503-0.07-4.273-0.982-5.261-2.71
				c-2.343-4.098,0.299-11.847,3.272-17.238c3.638-6.595,2.222-13.154,2.207-13.219c-0.05-0.221,0.089-0.441,0.31-0.491
				c0.221-0.05,0.441,0.088,0.491,0.31c0.063,0.279,1.505,6.919-2.289,13.797c-3.098,5.616-5.313,12.875-3.278,16.434
				c0.836,1.462,2.374,2.235,4.572,2.297c2.089,0.057,3.591-0.588,4.452-1.923c2.33-3.613-0.39-11.272-0.859-12.235
				c-0.062-0.127-0.054-0.277,0.021-0.397c0.075-0.12,0.206-0.193,0.348-0.193h5.803c0.227,0,0.41,0.184,0.41,0.41
				c0,0.227-0.184,0.411-0.41,0.411h-5.206c0.746,2.032,2.933,8.805,0.583,12.449C171.006,180.027,169.366,180.8,167.112,180.8z"/>
		</g>
		<g>
			<g>
				<path style="fill:#212C36;" d="M168.492,149.017l0.008,0.588c0.004,0.265-0.208,0.482-0.473,0.486l-0.664,0.009
					c-0.265,0.004-0.482-0.208-0.486-0.473l-0.008-0.588L168.492,149.017z"/>
			</g>
			<g>
				<path style="fill:#212C36;" d="M169.833,148.817c-0.176-0.328-0.644-1.281-0.69-1.735c-0.003-0.033,0-0.079,0.056-0.144
					c0.227-0.262,0.937-0.417,1.086-0.424l-0.009-0.48c-0.094,0.001-1.036,0.136-1.431,0.579c-0.136,0.153-0.198,0.331-0.18,0.517
					c0.065,0.642,0.717,1.862,0.745,1.914L169.833,148.817z"/>
			</g>
			<g>
				<g>
					<path style="fill:#AAB2BD;" d="M170.199,142.356l1.133-1.843l2.244-1.251l-0.414-0.743l-2.341,1.305
						c-0.064,0.035-0.117,0.087-0.155,0.149l-1.192,1.938L170.199,142.356z"/>
				</g>
			</g>
			<g>
				<g>
					<g>
						<path style="fill:#FF3100;" d="M166.418,144.756l0.055,4.053c0.004,0.265,0.221,0.477,0.486,0.473l3.41-0.047
							c0.265-0.004,0.477-0.221,0.473-0.486l-0.055-4.053c-0.004-0.265-0.221-0.477-0.486-0.473l-3.41,0.046
							C166.626,144.273,166.414,144.491,166.418,144.756z M167.937,145.718c-0.002-0.139,0.109-0.253,0.248-0.255l1.67-0.023
							c0.139-0.002,0.253,0.109,0.255,0.248l0.038,2.82c0.002,0.139-0.109,0.253-0.248,0.255l-1.67,0.023
							c-0.139,0.002-0.253-0.109-0.255-0.248L167.937,145.718z"/>
					</g>
				</g>
			</g>
			<g>
				<polygon style="fill:#212C36;" points="166.42,144.956 165.83,144.085 166.479,142.593 168.691,141.431 170.802,142.765 
					170.789,144.896 				"/>
			</g>
			<g>
				<path style="fill:#212C36;" d="M168.85,141.785l0.316-0.459c0.077-0.113,0.231-0.141,0.344-0.064l1.137,0.782
					c0.113,0.077,0.141,0.231,0.064,0.344l-0.316,0.459L168.85,141.785z"/>
			</g>
		</g>
		<rect x="172.763" y="163.253" style="fill:#FF3100;" width="3.882" height="4.769"/>
		<g>
			<rect x="174.085" y="157.512" style="fill:#FFCC00;" width="11.966" height="31.338"/>
			<path style="fill:#FFB60D;" d="M186.052,136.992h-10.238c-0.954,0-1.728,0.774-1.728,1.728v18.792h11.966V136.992z"/>
			<path style="fill:#FFCC00;" d="M198.018,157.512V138.72c0-0.954-0.774-1.728-1.728-1.728h-10.239v20.52H198.018z"/>
			<rect x="186.052" y="157.512" style="fill:#FFB60D;" width="11.966" height="31.338"/>
		</g>
		<rect x="186.052" y="141.984" style="fill:#DEF3EE;" width="0.024" height="12.935"/>
		<g>
			<path style="fill:#FEFBFF;" d="M186.052,140.785h-8.605c-0.954,0-1.728,0.774-1.728,1.728v7.237h10.333V140.785z"/>
			<path style="fill:#DEF3EE;" d="M186.052,148.902h-10.333v3.114c0,0.954,0.774,1.728,1.728,1.728h8.63v-0.024h-0.025V148.902z"/>
			<path style="fill:#DEF3EE;" d="M186.076,149.749h10.333v-7.261c0-0.954-0.774-1.728-1.728-1.728h-8.63v0.024h0.025V149.749z"/>
			<path style="fill:#FEFBFF;" d="M186.076,148.902v4.818h8.605c0.954,0,1.728-0.774,1.728-1.728v-3.09H186.076z"/>
		</g>
		<rect x="181.302" y="149.947" style="fill:#31404F;" width="2.245" height="2.752"/>
		<rect x="188.556" y="149.947" style="fill:#212C36;" width="2.245" height="2.752"/>
		<rect x="177.675" y="149.947" style="fill:#31404F;" width="2.245" height="2.752"/>
		<rect x="192.183" y="149.947" style="fill:#212C36;" width="2.245" height="2.752"/>
		<g>
			<rect x="184.929" y="149.947" style="fill:#31404F;" width="1.122" height="2.752"/>
			<rect x="186.052" y="149.947" style="fill:#212C36;" width="1.122" height="2.752"/>
		</g>
		<g>
			<rect x="178.087" y="143.025" style="fill:#31404F;" width="7.957" height="4.228"/>
			<rect x="186.044" y="143.025" style="fill:#212C36;" width="7.972" height="4.228"/>
		</g>
	</g>
	<g>
		<rect x="29.907" y="122.634" style="fill:#E02B00;" width="20.642" height="6.134"/>
		<rect x="29.907" y="116.5" style="fill:#FF3100;" width="20.642" height="6.134"/>
		<rect x="184.107" y="116.5" style="fill:#FF3100;" width="20.642" height="6.134"/>
		<rect x="184.107" y="122.634" style="fill:#E02B00;" width="20.642" height="6.134"/>
	</g>
	<g>
		<rect x="18.529" y="91.161" style="fill:#31404F;" width="7.957" height="97.69"/>
		<rect x="26.486" y="91.161" style="fill:#212C36;" width="7.957" height="97.69"/>
	</g>
	<g>
		<rect x="208.469" y="91.161" style="fill:#212C36;" width="7.957" height="97.69"/>
		<rect x="200.511" y="91.161" style="fill:#31404F;" width="7.957" height="97.69"/>
	</g>
	<g>
		<rect x="264.371" y="65.25" style="fill:#DEF3EE;" width="88.402" height="123.601"/>
		<rect x="264.371" y="171.667" style="fill:#CADED9;" width="88.402" height="17.184"/>
		<rect x="341.029" y="65.25" style="fill:#CADED9;" width="100.145" height="123.601"/>
	</g>
	<rect x="260.851" y="66.55" style="fill:#FF3100;" width="183.844" height="24.864"/>
	<g>
		<rect x="280.08" y="124.755" style="fill:#31404F;" width="20.152" height="64.227"/>
		<rect x="300.231" y="124.755" style="fill:#212C36;" width="20.151" height="64.227"/>
	</g>
	<rect x="283.142" y="127.928" style="fill:#4D96E3;" width="34.178" height="29.428"/>
	<g>
		<rect x="213.271" y="177.757" style="fill:#283541;" width="7.233" height="2.545"/>
		<path style="fill:#FF3100;" d="M205.731,162.061c2.354,0.981,2.195,1.873-0.353,1.982l-67.619,3.679
			c-2.548,0.109-2.823-0.842-0.613-2.113l17.022-9.832c2.211-1.271,6.105-2.358,8.654-2.417l18.362-0.658
			c2.549-0.058,6.561,0.697,8.915,1.678L205.731,162.061z"/>
		<path style="fill:#305172;" d="M154.747,156.78c2.039-1.171,5.75-2.207,8.101-2.26l18.616-0.662c2.409,0,6.082,0.714,8.188,1.593
			l15.175,7.458l-67.007,3.649L154.747,156.78z"/>
		<path style="fill:#2B4866;" d="M147.161,168.746c0.065,0.476-0.268,0.914-0.744,0.978l0,0c-0.476,0.065-0.914-0.268-0.978-0.744
			l-0.731-5.36c-0.065-0.476,0.268-0.914,0.744-0.979l0,0c0.476-0.065,0.914,0.268,0.978,0.744L147.161,168.746z"/>
		<path style="opacity:0.6;fill:#CFF3FF;" d="M154.043,165.674l8.024-11.104c0.272-0.026,0.535-0.044,0.781-0.05l0.821-0.029
			l-7.736,11.081L154.043,165.674z"/>
		<path style="opacity:0.6;fill:#CFF3FF;" d="M181.465,153.858c0.109,0,0.232,0.009,0.346,0.012l-7.782,10.716l-1.904,0.104
			l7.996-10.784L181.465,153.858z"/>
		<path style="opacity:0.6;fill:#CFF3FF;" d="M151.817,158.473l2.931-1.693c0.444-0.255,0.977-0.501,1.548-0.734l-8.937,9.992
			l-2.659,0.145L151.817,158.473z"/>
		<rect x="162.631" y="153.858" style="fill:#FF3100;" width="1.352" height="14.706"/>
		<rect x="185.288" y="153.568" style="fill:#FF3100;" width="1.352" height="14.706"/>
		<path style="fill:#FF3100;" d="M116.609,183.99h97.89c1.289-0.786,2.012-2.281,1.737-3.991l-1.144-6.817l-1.168-6.969
			c-0.072-0.461-0.215-0.898-0.413-1.311c-0.874-1.843-2.868-3.099-4.95-2.972l-82.637,5.149c-2.67,0-6.492,1.573-8.423,3.949
			c-0.58,0.707-0.985,1.494-1.144,2.328l-0.445,2.074l-0.977,4.577C114.633,181.712,115.332,183.205,116.609,183.99z"/>
		<path style="fill:#E02B00;" d="M116.437,183.874h98.237c1.178-0.811,1.825-2.244,1.563-3.875l-1.144-6.818l-0.383-2.288H117.62
			c-0.039,0.045-0.081,0.089-0.119,0.135c-0.58,0.707-0.985,1.494-1.144,2.328l-0.445,2.074l-0.977,4.577
			C114.647,181.633,115.271,183.064,116.437,183.874z"/>
		<path style="fill:#283541;" d="M115.599,183.063c0.687,0.925,1.806,1.513,3.165,1.513h93.57c1.358,0,2.486-0.587,3.188-1.513
			H115.599z"/>
		<path style="fill:#832D2E;" d="M178.436,165.809c0.011,0.44,0.378,0.788,0.818,0.776l3.493-0.091
			c0.44-0.012,0.788-0.378,0.776-0.818l0,0c-0.012-0.44-0.378-0.788-0.818-0.776l-3.493,0.091
			C178.772,165.002,178.424,165.368,178.436,165.809L178.436,165.809z"/>
		<path style="fill:#832D2E;" d="M154.866,166.624c0.012,0.44,0.378,0.788,0.818,0.776l3.493-0.091
			c0.44-0.012,0.788-0.378,0.776-0.818l0,0c-0.011-0.44-0.378-0.788-0.818-0.776l-3.493,0.091
			C155.202,165.818,154.855,166.184,154.866,166.624L154.866,166.624z"/>
		<g>
			<path style="fill:#FFCD02;" d="M123.508,173.253c0-0.612-0.246-1.168-0.652-1.573c-0.397-0.405-0.953-0.652-1.565-0.652h-3.79
				c-0.58,0.707-0.985,1.494-1.144,2.328l-0.034,0.158h7.159C123.492,173.428,123.508,173.343,123.508,173.253z"/>
			<path style="fill:#FFB60D;" d="M116.323,173.514l-0.411,1.916c0.135,0.024,0.27,0.04,0.413,0.04h4.966
				c1.134,0,2.06-0.857,2.19-1.956H116.323z"/>
		</g>
		<g>
			<path style="fill:#FFCD02;" d="M213.924,166.213c-0.072-0.461-0.215-0.898-0.413-1.311h-2.217c-1.756,0-3.178,1.422-3.178,3.178
				v1.923c0,0.311,0.059,0.606,0.142,0.89h6.451L213.924,166.213z"/>
			<path style="fill:#FFB60D;" d="M208.257,170.893c0.387,1.319,1.592,2.288,3.036,2.288h3.798l-0.383-2.288H208.257z"/>
		</g>
		<g>
			<rect x="117.363" y="176.117" style="fill:#FFB60D;" width="1.06" height="2.534"/>
			<rect x="116.303" y="176.117" style="fill:#FFCD02;" width="1.059" height="2.534"/>
		</g>
		<g>
			<rect x="213.271" y="174.711" style="fill:#FFB60D;" width="1.06" height="2.534"/>
			<rect x="212.211" y="174.711" style="fill:#FFCD02;" width="1.059" height="2.534"/>
		</g>
		<g>
			<path style="fill:#283541;" d="M132.37,183.99c-0.019-0.198-0.031-0.397-0.031-0.598c0-3.469,2.82-6.292,6.286-6.292
				c3.469,0,6.292,2.823,6.292,6.292c0,0.2-0.012,0.399-0.031,0.598h1.558c0.015-0.198,0.023-0.397,0.023-0.598
				c0-4.324-3.518-7.842-7.842-7.842c-4.321,0-7.836,3.518-7.836,7.842c0,0.2,0.008,0.399,0.023,0.598H132.37z"/>
			<g>
				<path style="fill:#374246;" d="M131.991,183.391c0,3.662,2.97,6.633,6.635,6.633v-13.27
					C134.961,176.755,131.991,179.727,131.991,183.391z"/>
				<path style="fill:#2E373B;" d="M138.626,176.754L138.626,176.754l-0.001,13.27h0.001c3.663,0,6.635-2.971,6.635-6.633
					C145.261,179.727,142.29,176.754,138.626,176.754z"/>
			</g>
			<g>
				<path style="fill:#DCDCDC;" d="M135.147,183.391c0,1.922,1.556,3.477,3.479,3.478v-6.959
					C136.703,179.91,135.147,181.472,135.147,183.391z"/>
				<path style="fill:#BFBFBF;" d="M138.626,179.91L138.626,179.91l-0.001,6.959l0.001,0c1.922,0,3.478-1.555,3.478-3.478
					C142.104,181.472,140.549,179.91,138.626,179.91z"/>
			</g>
			<g>
				<path style="fill:#4D4D4D;" d="M138.626,180.909L138.626,180.909l-0.001,4.96h0.001c1.37,0,2.479-1.108,2.479-2.479
					C141.105,182.023,139.996,180.909,138.626,180.909z"/>
				<path style="fill:#585858;" d="M136.146,183.39c0,1.37,1.109,2.478,2.479,2.479v-4.96
					C137.255,180.909,136.146,182.023,136.146,183.39z"/>
			</g>
		</g>
		<g>
			<g>
				<path style="fill:#283541;" d="M192.058,183.99c-0.053-0.334-0.084-0.676-0.084-1.025c0-3.664,2.97-6.64,6.634-6.64
					c3.664,0,6.64,2.976,6.64,6.64c0,0.349-0.031,0.691-0.084,1.025h0.866c0.047-0.335,0.074-0.677,0.074-1.025
					c0-4.14-3.355-7.495-7.495-7.495s-7.489,3.355-7.489,7.495c0,0.348,0.027,0.69,0.073,1.025H192.058z"/>
				<path style="fill:#283541;" d="M191.545,183.99c-0.049-0.339-0.079-0.681-0.079-1.025c0-3.941,3.203-7.147,7.141-7.147
					c3.941,0,7.148,3.206,7.148,7.147c0,0.346-0.03,0.688-0.079,1.025h0.703c0.045-0.338,0.072-0.68,0.072-1.025
					c0-4.324-3.518-7.842-7.843-7.842c-4.321,0-7.836,3.518-7.836,7.842c0,0.344,0.026,0.686,0.071,1.025H191.545z"/>
				<path style="fill:#283541;" d="M192.322,182.965c0-3.469,2.82-6.292,6.286-6.292c3.469,0,6.292,2.823,6.292,6.292
					c0,0.345-0.03,0.687-0.086,1.025h0.699c0.051-0.339,0.082-0.68,0.082-1.025c0-3.853-3.135-6.988-6.988-6.988
					c-3.85,0-6.981,3.135-6.981,6.988c0,0.345,0.031,0.687,0.082,1.025h0.7C192.351,183.653,192.322,183.31,192.322,182.965z"/>
			</g>
			<g>
				<path style="fill:#374246;" d="M198.609,176.326c-3.665,0-6.636,2.973-6.636,6.637c0,3.662,2.971,6.633,6.636,6.633
					c0,0,0.001,0,0.001,0v-13.27C198.61,176.326,198.61,176.326,198.609,176.326z"/>
				<path style="fill:#2E373B;" d="M205.244,182.963c0-3.664-2.971-6.636-6.634-6.637v13.27
					C202.273,189.595,205.244,186.625,205.244,182.963z"/>
			</g>
			<g>
				<path style="fill:#DCDCDC;" d="M198.609,179.482c-1.923,0-3.48,1.563-3.48,3.481c0,1.922,1.556,3.478,3.48,3.478
					c0.001,0,0.001,0,0.001,0v-6.959C198.61,179.482,198.61,179.482,198.609,179.482z"/>
				<path style="fill:#BFBFBF;" d="M202.087,182.963c0-1.918-1.555-3.48-3.476-3.481v6.959
					C200.532,186.44,202.087,184.885,202.087,182.963z"/>
			</g>
			<g>
				<path style="fill:#585858;" d="M198.609,180.481c-1.371,0-2.48,1.114-2.48,2.482c0,1.37,1.109,2.479,2.48,2.479
					c0,0,0.001,0,0.001,0v-4.96C198.61,180.481,198.61,180.481,198.609,180.481z"/>
				<path style="fill:#4D4D4D;" d="M201.088,182.962c0-1.367-1.108-2.48-2.477-2.481v4.96
					C199.98,185.44,201.088,184.332,201.088,182.962z"/>
			</g>
		</g>
	</g>
	<rect x="10.964" y="91.415" style="fill:#212C36;" width="31.046" height="9.832"/>
	<rect x="193.157" y="91.415" style="fill:#212C36;" width="31.046" height="9.832"/>
	<g>
		<rect x="4.499" y="75.319" style="fill:#FF3100;" width="113.084" height="19.274"/>
		<rect x="117.583" y="75.319" style="fill:#E02B00;" width="113.084" height="19.274"/>
	</g>
	<g>
		<rect x="24.228" y="63.964" style="fill:#FFCC00;" width="93.355" height="20.992"/>
		<rect x="117.583" y="63.964" style="fill:#FFB60D;" width="93.355" height="20.992"/>
	</g>
	<g>
		<g>
			<path style="fill:#EFD0B4;" d="M118.069,165.7l-5.982-13.403c-1.163,0.519-1.685,1.883-1.166,3.046l4.102,9.191
				C115.542,165.697,116.906,166.219,118.069,165.7z"/>
			<path style="fill:#E5BD99;" d="M119.235,162.654l-4.102-9.191c-0.519-1.163-1.883-1.685-3.046-1.166l5.982,13.403
				C119.232,165.18,119.754,163.817,119.235,162.654z"/>
		</g>
		<g>
			<path style="fill:#2ECB71;" d="M110.529,143.18c-1.288,0.242-2.137,1.482-1.895,2.771l1.321,7.037l2.333-0.438L110.529,143.18z"
				/>
			<path style="fill:#EFD0B4;" d="M109.955,152.988l0.59,3.144c0.242,1.289,1.482,2.137,2.771,1.895l-1.028-5.477L109.955,152.988z"
				/>
			<path style="fill:#E5BD99;" d="M112.288,152.55l1.028,5.477c1.289-0.242,2.137-1.482,1.895-2.771l-0.59-3.144L112.288,152.55z"/>
			<path style="fill:#1E814C;" d="M114.621,152.112l-1.321-7.037c-0.242-1.288-1.482-2.137-2.771-1.895l1.759,9.37L114.621,152.112z
				"/>
		</g>
		<g>
			<path style="fill:#542D16;" d="M113.963,186.43c0,1.266-1.317,2.29-2.943,2.29c-1.624,0-2.943-1.025-2.943-2.29
				c0-1.264,1.319-2.29,2.943-2.29C112.646,184.14,113.963,185.166,113.963,186.43z"/>
			<rect x="108.013" y="162.043" style="fill:#052538;" width="5.886" height="24.29"/>
		</g>
		<g>
			<path style="fill:#915533;" d="M108.838,186.43c0,1.266-1.318,2.29-2.945,2.29c-1.625,0-2.943-1.025-2.943-2.29
				c0-1.264,1.318-2.29,2.943-2.29C107.52,184.14,108.838,185.166,108.838,186.43z"/>
			<rect x="102.951" y="162.14" style="fill:#07334E;" width="5.888" height="24.29"/>
		</g>
		<path style="fill:#2ECB71;" d="M114.125,151.919c0.013-3.288-0.727-6.993-3.235-8.531c0,0,0.272,1.793-0.558,2.102
			c-1.154,0.429-2.605-1.761-3.042-2.078l-0.153-0.312c-2.626,0.364-4.471,2.46-4.485,6.027l-0.41,18.589h12.323L114.125,151.919z"
			/>
		<g>
			<path style="fill:#E5BD99;" d="M107.124,141.675v1.53c0,0-0.389,0.812,0.556,1.893c0.565,0.646,3.047,2.064,3.047,2.064
				l0.891-2.378l-0.726-1.443l0.079-1.827L107.124,141.675z"/>
			<path style="fill:#EFD0B4;" d="M113.23,138.057c0-0.93,0.089-2.261-0.334-2.981c-0.715-1.215-2.268-1.549-3.65-1.549
				c-2.201,0-4.608,1.727-4.608,4.228c0,2.502,2.408,4.831,4.608,4.831C111.446,142.586,113.23,140.558,113.23,138.057z"/>
			<path style="fill:#202B31;" d="M105.735,139.337c-0.33-0.206-0.626-0.525-0.772-0.89c-0.195-0.488-0.065-1.134,0.493-1.296
				c0.212-0.062,0.448-0.064,0.68-0.022c-0.232-0.78,0.234-3.097,1.038-3.313c1.728-0.465,4.41-0.368,4.998-0.29
				c0.446,0.059,0.743,1.867,0.91,2.26c0.215,0.506,0.141,2.096,0.149,2.27c0.096-0.171,0.059-2.234,0.061-2.281
				c0.019-0.367-0.201-1.982-0.464-2.428c-0.354-0.602-0.891-1.116-1.499-1.452c-1.139-0.63-2.191-0.74-3.866-0.484
				c-0.28,0.043-3.241,0.604-3.661,4.328c-0.105,0.935,0.17,2.344,0.7,3.322c0.092,0.171,0.313,0.642,1.435,1.855
				C105.95,140.93,105.805,139.381,105.735,139.337z"/>
			<path style="fill:#202B31;" d="M112.247,132.498c-2.625-1.75-7.476-0.217-7.303,3.763c0.004,0.085,0.334,2.734,1.086,3.395
				c0.116,0.101,0.212-0.362,0.224-0.513c0.127-1.588-0.164-3.805,1.253-4.878c0.004-0.004,0.004-0.009,0.008-0.013
				c0.136,0.36,0.381,0.683,0.626,0.973c0.314,0.373,0.711,0.757,1.183,0.917c0.088,0.029,0.193-0.049,0.189-0.144
				c-0.024-0.393-0.019-0.756,0.021-1.135c0.325,0.39,0.803,0.651,1.309,0.701c0.093,0.009,0.16-0.08,0.164-0.163
				c0.016-0.306-0.047-0.74,0.043-1.079c1.447,0.358,1.508,1.681,1.781,2.92c0.06,0.271,0.16,2.168,0.413,1.809
				C114.277,137.589,113.942,133.628,112.247,132.498z"/>
		</g>
		<g>
			<path style="fill:#2ECB71;" d="M104.87,143.819c-1.3-0.167-2.49,0.753-2.656,2.053l-0.91,7.102l2.354,0.302L104.87,143.819z"/>
			<path style="fill:#EFD0B4;" d="M101.304,152.973l-0.407,3.173c-0.167,1.3,0.752,2.49,2.053,2.656l0.708-5.528L101.304,152.973z"
				/>
			<path style="fill:#E5BD99;" d="M103.659,153.275l-0.708,5.528c1.3,0.167,2.49-0.753,2.656-2.053l0.407-3.173L103.659,153.275z"/>
			<path style="fill:#1E814C;" d="M106.013,153.577l0.91-7.102c0.166-1.3-0.753-2.49-2.053-2.656l-1.211,9.456L106.013,153.577z"/>
		</g>
		<g>
			<path style="fill:#EFD0B4;" d="M110.238,167.429l-8.288-12.63c-1.096,0.719-1.402,2.191-0.682,3.287l5.684,8.661
				C107.67,167.843,109.142,168.149,110.238,167.429z"/>
			<path style="fill:#E5BD99;" d="M110.92,164.143l-5.684-8.661c-0.719-1.096-2.191-1.402-3.287-0.682l8.288,12.63
				C111.334,166.71,111.639,165.239,110.92,164.143z"/>
		</g>
	</g>
	
	
	<path style="fill:#CADED9;" d="M317.32,161.317c0,0.612-0.496,1.109-1.109,1.109h-4.162c-0.612,0-1.109-0.496-1.109-1.109l0,0
		c0-0.612,0.496-1.109,1.109-1.109h4.162C316.824,160.209,317.32,160.705,317.32,161.317L317.32,161.317z"/>
	<g>
		<rect x="329.792" y="66.55" style="fill:#E02B00;" width="22.98" height="21.45"/>
		<rect x="283.831" y="66.55" style="fill:#E02B00;" width="22.98" height="21.45"/>
		<rect x="375.753" y="66.55" style="fill:#E02B00;" width="22.98" height="21.45"/>
		<rect x="421.714" y="66.55" style="fill:#E02B00;" width="22.98" height="21.45"/>
	</g>
	<g>
		<g>
			<rect x="347.991" y="101.242" style="fill:#31404F;" width="41.526" height="67.504"/>
			<rect x="389.518" y="101.242" style="fill:#212C36;" width="41.526" height="67.504"/>
		</g>
		<g>
			<rect x="350.52" y="103.983" style="fill:#4D96E3;" width="38.997" height="62.022"/>
			<rect x="389.518" y="103.983" style="fill:#1465C9;" width="38.997" height="62.022"/>
		</g>
		<path style="opacity:0.6;fill:#CFF3FF;" d="M364.044,116.235c0,2.548-2.066,4.614-4.614,4.614l0,0
			c-2.548,0-4.614-2.066-4.614-4.614V112.2c0-2.548,2.066-4.614,4.614-4.614l0,0c2.548,0,4.614,2.066,4.614,4.614V116.235z"/>
	</g>
	<g>
		<rect x="283.142" y="127.928" style="fill:#4D96E3;" width="17.089" height="29.428"/>
		<rect x="300.231" y="127.928" style="fill:#1465C9;" width="17.089" height="29.428"/>
	</g>
	<g>
		<path style="fill:#F2F0E4;" d="M89.056,69.334h5.154c1.501,0,3.325,0.468,3.325,3.697c0,3.656-1.951,3.923-3.325,3.86
			c-0.655-0.027-2.78-0.278-2.862-0.327v4.757h-2.293V69.334z M94.029,74.868c0.726,0,1.197-0.371,1.197-1.811
			c-0.015-1.415-0.623-1.685-1.197-1.685h-2.681v3.496H94.029z"/>
		<path style="fill:#F2F0E4;" d="M99.03,71.823c0-2.08,1.474-2.511,2.604-2.489c0,0,4.22,0.118,5.274,0.262v1.896h-4.734
			c-0.851,0-0.851,0.474-0.851,0.917v1.87l4.839,0.173v1.885l-4.839,0.155v1.87c0.007,0.868,0.54,0.852,1.015,0.852h4.57v1.878
			c-0.928,0.127-5.11,0.278-5.11,0.278c-1.069,0.048-2.767-0.194-2.767-2.405V71.823z"/>
		<path style="fill:#F2F0E4;" d="M107.882,69.334h8.859v2.112h-3.332v9.874h-2.293v-9.874h-3.234V69.334z"/>
		<path style="fill:#F2F0E4;" d="M117.924,69.334h5.244c1.871,0,3.263,0.875,3.263,3.738c0,2.967-1.243,3.319-1.909,3.529l2.27,4.72
			h-2.58l-1.982-4.536l-2.014-0.229v4.765h-2.293V69.334z M122.944,74.754c0.798,0,1.178-0.234,1.178-1.683
			c0-1.362-0.458-1.699-1.178-1.699h-2.718v3.382H122.944z"/>
		<path style="fill:#F2F0E4;" d="M132.337,69.252c2.833,0,4.807,0.54,4.807,6.157c0,5.289-1.859,5.977-4.807,5.977
			c-2.947,0-4.822-0.524-4.822-5.977C127.516,69.792,129.587,69.252,132.337,69.252z M132.337,79.273
			c1.924,0,2.515-0.634,2.515-3.864c0-3.735-0.693-4.045-2.515-4.045c-1.772,0-2.529,0.23-2.529,4.045
			C129.809,78.68,130.291,79.273,132.337,79.273z"/>
		<path style="fill:#F2F0E4;" d="M138.692,69.334h2.293v9.023c0,0.868,0.541,0.852,1.015,0.852h4.111v2.112h-4.921
			c-1.306,0-2.498-0.483-2.498-2.334V69.334z"/>
	</g>
</g>


</svg>
