<?xml version="1.0" encoding="UTF-8"?>
<svg id="Layer_1" data-name="Layer 1" xmlns="http://www.w3.org/2000/svg" viewBox="0 0 260 190.79">
  <defs>
    <style>
      .cls-1 {
        fill: #cff3ff;
        opacity: .6;
      }

      .cls-2 {
        fill: #542d16;
      }

      .cls-3 {
        fill: #d49a6c;
      }

      .cls-4 {
        fill: #f6871e;
      }

      .cls-5 {
        fill: #1e814c;
      }

      .cls-6 {
        fill: #fff;
      }

      .cls-7 {
        fill: #585858;
      }

      .cls-8 {
        fill: #2c406e;
      }

      .cls-9 {
        fill: #eac3a4;
      }

      .cls-10 {
        fill: #67432d;
      }

      .cls-11 {
        fill: #bfbfbf;
      }

      .cls-12 {
        fill: #202b31;
      }

      .cls-13 {
        fill: #f2f0e4;
      }

      .cls-14 {
        fill: #140b05;
      }

      .cls-15 {
        fill: #37518a;
      }

      .cls-16 {
        fill: #212c36;
      }

      .cls-17 {
        fill: #832d2e;
      }

      .cls-18 {
        fill: #4d4d4d;
      }

      .cls-19 {
        fill: #ffb60d;
      }

      .cls-20 {
        fill: #e02b00;
      }

      .cls-21 {
        fill: #304678;
      }

      .cls-22 {
        fill: #2b4866;
      }

      .cls-23 {
        fill: #fefbff;
      }

      .cls-24 {
        fill: #aab2bd;
      }

      .cls-25 {
        fill: #07334e;
      }

      .cls-26 {
        fill: #caded9;
      }

      .cls-27 {
        fill: #305172;
      }

      .cls-28 {
        fill: #1465c9;
      }

      .cls-29 {
        fill: #333;
      }

      .cls-30 {
        fill: #ffd38c;
      }

      .cls-31 {
        fill: #7d4c2e;
      }

      .cls-32 {
        fill: #e5bd99;
      }

      .cls-33 {
        fill: #fdb813;
      }

      .cls-34 {
        fill: #915533;
      }

      .cls-35 {
        fill: #393c41;
      }

      .cls-36 {
        fill: #31404f;
      }

      .cls-37 {
        fill: #464646;
      }

      .cls-38 {
        fill: #2ecb71;
      }

      .cls-39 {
        fill: #283541;
      }

      .cls-40 {
        fill: #dcdcdc;
      }

      .cls-41 {
        fill: #fafbfd;
      }

      .cls-42 {
        fill: #052538;
      }

      .cls-43 {
        fill: #def3ee;
      }

      .cls-44 {
        fill: #2e373b;
      }

      .cls-45 {
        fill: #374246;
      }

      .cls-46 {
        fill: #fc0;
      }

      .cls-47 {
        fill: #ff3100;
      }

      .cls-48 {
        fill: #404040;
      }

      .cls-49 {
        fill: #ffcd02;
      }

      .cls-50 {
        fill: #efd0b4;
      }

      .cls-51 {
        fill: #4d96e3;
      }
    </style>
  </defs>
  <!-- <path class="cls-6" d="M450,.05V16.67h-11.3c-4.58,0-8.3-3.72-8.3-8.31,0-2.3,.93-4.37,2.43-5.88,1.51-1.5,3.58-2.43,5.87-2.43h11.3Z"/> -->
  <rect class="cls-10" y="175.29" width="260" height="15.5"/>
  <rect class="cls-36" y="175.29" width="260" height="7.75"/>
  <g>
    <g>
      <polygon class="cls-4" points="249 151.53 248.97 151.53 248.97 149 242.15 149 242.15 155.05 242.73 155.05 243.13 167.77 243.93 170.28 248.86 170.28 249.5 167.53 249 151.53"/>
      <polygon class="cls-33" points="235.33 149 235.33 155.01 234.94 167.5 235.58 170.28 240.51 170.28 241.31 167.77 241.71 155.05 242.15 155.05 242.15 149 235.33 149"/>
    </g>
    <rect class="cls-29" x="235.58" y="170.28" width="4.93" height="3.48"/>
    <rect class="cls-29" x="234.74" y="175.07" width="6.62" height=".67"/>
    <rect class="cls-29" x="243.93" y="170.28" width="4.93" height="3.48"/>
    <g>
      <path class="cls-37" d="M243.09,175.07h3.31v-3.31c-1.83,0-3.31,1.48-3.31,3.31Z"/>
      <path class="cls-48" d="M246.39,171.76h0v3.31h3.31c0-1.83-1.48-3.31-3.31-3.31Z"/>
    </g>
    <rect class="cls-29" x="243.09" y="175.07" width="6.62" height=".67"/>
    <g>
      <rect class="cls-3" x="239.45" y="126.67" width="2.7" height="5.65"/>
      <rect class="cls-9" x="242.15" y="126.67" width="2.7" height="5.65"/>
    </g>
    <polygon class="cls-30" points="249.12 150.47 248.82 130.83 244.85 129.72 242.15 130.88 239.45 129.72 235.47 130.83 235.18 150.47 249.12 150.47"/>
    <polygon class="cls-29" points="249.09 148.7 249.06 146.29 235.24 146.29 235.21 148.7 249.09 148.7"/>
    <path class="cls-3" d="M227.08,150.54c-.39,1.11,.2,2.33,1.31,2.72,1.11,.39,2.33-.2,2.72-1.31l.03-.1-4.03-1.43-.04,.12Z"/>
    <path class="cls-3" d="M257.13,150.28l-4.03,1.43,.08,.24c.39,1.11,1.61,1.7,2.72,1.31,1.11-.39,1.7-1.61,1.31-2.72l-.09-.26Z"/>
    <polygon class="cls-15" points="233.6 140.9 233.6 144.46 233.74 144.46 234.98 140.9 233.6 140.9"/>
    <polygon class="cls-15" points="231.7 137.34 230.45 140.9 233.6 140.9 233.6 137.34 231.7 137.34"/>
    <polygon class="cls-21" points="235.34 139.87 235.32 140.9 237.15 140.9 237.15 137.34 233.6 137.34 233.6 140.9 234.98 140.9 235.34 139.87"/>
    <rect class="cls-15" x="237.15" y="144.46" width="3.55" height="3.56"/>
    <polygon class="cls-21" points="233.6 133.78 232.94 133.78 231.7 137.34 233.6 137.34 233.6 133.78"/>
    <rect class="cls-21" x="240.7" y="144.46" width="3.55" height="3.56"/>
    <polygon class="cls-15" points="254.91 151.07 257.13 150.28 256.33 148.01 254.91 148.01 254.91 151.07"/>
    <path class="cls-15" d="M233.6,131.94c-.03,.07-.07,.14-.09,.22l-.57,1.62h.66v-1.84Z"/>
    <rect class="cls-21" x="237.15" y="140.9" width="3.55" height="3.56"/>
    <polygon class="cls-15" points="253.1 151.71 253.49 151.57 253.05 151.57 253.1 151.71"/>
    <polygon class="cls-15" points="231.15 151.86 231.25 151.57 230.35 151.57 231.15 151.86"/>
    <polygon class="cls-15" points="233.6 144.85 233.74 144.46 233.6 144.46 233.6 144.85"/>
    <polygon class="cls-15" points="235.32 140.9 235.27 144.46 237.15 144.46 237.15 140.9 235.32 140.9"/>
    <polygon class="cls-15" points="227.12 150.43 230.05 151.47 230.05 148.01 227.97 148.01 227.12 150.43"/>
    <rect class="cls-15" x="237.15" y="137.34" width="3.55" height="3.56"/>
    <polygon class="cls-21" points="251.36 146.74 251.36 144.46 250.56 144.46 251.36 146.74"/>
    <path class="cls-21" d="M250.79,132.16c-.34-.96-1.3-1.53-2.27-1.42l-.71-.2v3.23h3.55l-.57-1.62Z"/>
    <rect class="cls-15" x="240.7" y="140.9" width="3.55" height="3.56"/>
    <rect class="cls-21" x="244.26" y="133.78" width="3.55" height="3.56"/>
    <rect class="cls-15" x="240.7" y="133.78" width="3.55" height="3.56"/>
    <rect class="cls-21" x="237.15" y="133.78" width="3.55" height="3.56"/>
    <rect class="cls-21" x="240.7" y="137.34" width="3.55" height="3.56"/>
    <rect class="cls-15" x="233.6" y="133.78" width="3.55" height="3.56"/>
    <rect class="cls-15" x="244.26" y="137.34" width="3.55" height="3.56"/>
    <path class="cls-21" d="M237.15,133.78v-3.42l-1.37,.38c-.9-.11-1.78,.37-2.18,1.19v1.84h3.55Z"/>
    <polygon class="cls-15" points="250.56 144.46 251.36 144.46 251.36 140.9 249.32 140.9 250.56 144.46"/>
    <polygon class="cls-21" points="233.6 144.46 233.6 140.9 230.45 140.9 230.05 142.06 230.05 144.46 233.6 144.46"/>
    <polygon class="cls-15" points="230.05 142.06 229.21 144.46 230.05 144.46 230.05 142.06"/>
    <polygon class="cls-15" points="247.81 150.47 249.12 150.47 249.08 148.01 247.81 148.01 247.81 150.47"/>
    <polygon class="cls-21" points="247.81 144.46 247.81 148.01 249.08 148.01 249.03 144.46 247.81 144.46"/>
    <polygon class="cls-21" points="254.91 148.01 256.33 148.01 255.09 144.46 254.91 144.46 254.91 148.01"/>
    <polygon class="cls-21" points="229.21 144.46 227.97 148.01 230.05 148.01 230.05 144.46 229.21 144.46"/>
    <polygon class="cls-15" points="251.36 144.46 251.36 146.74 251.81 148.01 254.91 148.01 254.91 144.46 251.36 144.46"/>
    <polygon class="cls-15" points="237.15 133.78 240.7 133.78 240.7 130.26 240.62 130.22 237.66 130.22 237.15 130.36 237.15 133.78"/>
    <polygon class="cls-15" points="235.22 148.01 235.18 150.47 237.15 150.47 237.15 148.01 235.22 148.01"/>
    <polygon class="cls-15" points="233.6 144.46 230.05 144.46 230.05 148.01 232.49 148.01 233.6 144.85 233.6 144.46"/>
    <polygon class="cls-21" points="237.15 144.46 235.27 144.46 235.22 148.01 237.15 148.01 237.15 144.46"/>
    <rect class="cls-15" x="244.26" y="144.46" width="3.55" height="3.56"/>
    <rect class="cls-21" x="244.26" y="148.01" width="3.55" height="2.45"/>
    <polygon class="cls-21" points="230.05 148.01 230.05 151.47 230.35 151.57 231.25 151.57 232.49 148.01 230.05 148.01"/>
    <rect class="cls-21" x="237.15" y="148.01" width="3.55" height="2.45"/>
    <polygon class="cls-15" points="251.36 140.9 253.84 140.9 252.6 137.34 251.36 137.34 251.36 140.9"/>
    <polygon class="cls-15" points="252.6 137.34 251.36 133.79 251.36 137.34 252.6 137.34"/>
    <polygon class="cls-21" points="247.81 137.34 247.81 140.9 248.97 140.9 248.96 139.87 249.32 140.9 251.36 140.9 251.36 137.34 247.81 137.34"/>
    <polygon class="cls-15" points="247.81 133.78 247.81 137.34 251.36 137.34 251.36 133.79 251.36 133.78 247.81 133.78"/>
    <rect class="cls-21" x="244.26" y="140.9" width="3.55" height="3.56"/>
    <polygon class="cls-15" points="247.81 140.9 247.81 144.46 249.03 144.46 248.97 140.9 247.81 140.9"/>
    <rect class="cls-15" x="240.7" y="148.01" width="3.55" height="2.45"/>
    <polygon class="cls-15" points="244.26 133.78 247.81 133.78 247.81 130.55 246.64 130.22 244.26 130.22 244.26 133.78"/>
    <polygon class="cls-21" points="240.7 130.26 240.7 133.78 244.26 133.78 244.26 130.22 243.68 130.22 242.15 130.88 240.7 130.26"/>
    <polygon class="cls-21" points="254.91 148.01 251.81 148.01 253.05 151.57 253.49 151.57 254.91 151.07 254.91 148.01"/>
    <polygon class="cls-21" points="251.36 140.9 251.36 144.46 254.91 144.46 254.91 143.95 253.84 140.9 251.36 140.9"/>
    <polygon class="cls-15" points="255.09 144.46 254.91 143.95 254.91 144.46 255.09 144.46"/>
    <g>
      <rect class="cls-33" x="236.1" y="134.78" width="6.05" height="14.25"/>
      <rect class="cls-4" x="242.15" y="134.78" width="5.66" height="14.25"/>
    </g>
    <polygon class="cls-35" points="235.14 148.37 235.11 150.48 249.19 150.48 249.16 148.37 235.14 148.37"/>
    <path class="cls-41" d="M240.75,147.82c-.89,0-1.61,.72-1.61,1.61s.72,1.61,1.61,1.61h1.4v-3.22h-1.4Z"/>
    <path class="cls-40" d="M243.55,147.82h-1.4v3.22h1.4c.89,0,1.61-.72,1.61-1.61s-.72-1.61-1.61-1.61Z"/>
    <polygon class="cls-33" points="238.18 130.06 236.1 130.66 236.1 134.78 238.18 134.78 238.18 130.06"/>
    <polygon class="cls-4" points="247.81 130.55 245.73 129.97 245.73 134.78 247.81 134.78 247.81 130.55"/>
    <g>
      <polygon class="cls-8" points="239.66 132.98 237.27 130.33 239.45 129.72 242.15 130.88 239.66 132.98"/>
      <polygon class="cls-8" points="244.63 132.98 247.03 130.33 244.84 129.72 242.15 130.88 244.63 132.98"/>
    </g>
    <g>
      <path class="cls-40" d="M238.19,136.47c0-.4-.32-.73-.73-.73s-.73,.32-.73,.73,.32,.73,.73,.73,.73-.32,.73-.73Z"/>
      <path class="cls-40" d="M247.17,136.47c0-.4-.32-.73-.73-.73s-.73,.32-.73,.73,.32,.73,.73,.73,.73-.32,.73-.73Z"/>
    </g>
    <g>
      <path class="cls-37" d="M234.74,175.07h3.31v-3.31c-1.83,0-3.31,1.48-3.31,3.31Z"/>
      <path class="cls-48" d="M238.04,171.76h0v3.31h3.31c0-1.83-1.48-3.31-3.31-3.31Z"/>
    </g>
    <polygon class="cls-15" points="239.45 129.72 237.66 130.22 240.62 130.22 239.45 129.72"/>
    <polygon class="cls-15" points="244.26 129.98 243.68 130.22 244.26 130.22 244.26 129.98"/>
    <polygon class="cls-15" points="246.64 130.22 244.85 129.72 244.26 129.98 244.26 130.22 246.64 130.22"/>
    <g>
      <rect class="cls-9" x="237.49" y="115.93" width="9.31" height="12.36" rx="3.41" ry="3.41"/>
      <g>
        <path class="cls-14" d="M240.15,123.42c0-.3-.25-.55-.55-.55s-.55,.24-.55,.55,.25,.55,.55,.55,.55-.24,.55-.55Z"/>
        <path class="cls-14" d="M245.05,123.42c0-.3-.25-.55-.55-.55s-.55,.24-.55,.55,.24,.55,.55,.55,.55-.24,.55-.55Z"/>
      </g>
      <path class="cls-31" d="M246.8,119.34v3.06c-.1,.13-.22,.23-.36,.31-1.44-1.82-1.72-2.53-1.6-2.69l-1.56-.57c-1.02,2.64-3.44,3.04-5.53,3.31-.1-.04-.18-.1-.26-.17v-3.24c0-1.88,1.53-3.41,3.41-3.41h2.49c1.88,0,3.41,1.53,3.41,3.41Z"/>
    </g>
    <path class="cls-8" d="M243.52,115.14h-2.75c-2.08,0-3.77,1.69-3.77,3.77v1.8c1.23,1.2,3.07,1.97,5.14,1.97s3.91-.77,5.14-1.97v-1.8c0-2.08-1.69-3.77-3.77-3.77Z"/>
    <path class="cls-15" d="M237.01,120.06v.64c1.23,1.2,3.07,1.97,5.14,1.97s3.91-.77,5.14-1.97v-.64h-10.28Z"/>
  </g>
  <g>
    <g>
      <path class="cls-47" d="M55.24,122.65c-.5,0-.91,.41-.91,.91s.41,.91,.91,.91h8.25v-1.81h-8.25Z"/>
      <path class="cls-20" d="M71.75,122.65h-8.26v1.81h8.26c.5,0,.91-.41,.91-.91s-.41-.91-.91-.91Z"/>
    </g>
    <path class="cls-36" d="M44.56,167.18c-.09,0-.19,0-.28,0-2.5-.07-4.27-.98-5.26-2.71-2.34-4.1,.3-11.85,3.27-17.24,3.64-6.59,2.22-13.15,2.21-13.22-.05-.22,.09-.44,.31-.49,.22-.05,.44,.09,.49,.31,.06,.28,1.51,6.92-2.29,13.8-3.1,5.62-5.31,12.88-3.28,16.43,.84,1.46,2.37,2.24,4.57,2.3,2.09,.06,3.59-.59,4.45-1.92,2.33-3.61-.39-11.27-.86-12.24-.06-.13-.05-.28,.02-.4,.07-.12,.21-.19,.35-.19h5.8c.23,0,.41,.18,.41,.41s-.18,.41-.41,.41h-5.21c.75,2.03,2.93,8.8,.58,12.45-.99,1.53-2.63,2.3-4.88,2.3Z"/>
    <g>
      <path class="cls-16" d="M45.94,135.39v.59c.01,.26-.2,.48-.46,.49h-.66c-.26,.01-.48-.2-.49-.46v-.59s1.62-.02,1.62-.02Z"/>
      <path class="cls-16" d="M47.28,135.19c-.18-.33-.64-1.28-.69-1.74,0-.03,0-.08,.06-.14,.23-.26,.94-.42,1.09-.42v-.48c-.1,0-1.04,.14-1.44,.58-.14,.15-.2,.33-.18,.52,.07,.64,.72,1.86,.74,1.91l.42-.23Z"/>
      <path class="cls-24" d="M47.64,128.73l1.13-1.84,2.24-1.25-.41-.74-2.34,1.3c-.06,.04-.12,.09-.16,.15l-1.19,1.94,.73,.45Z"/>
      <path class="cls-47" d="M43.86,131.13l.06,4.05c0,.26,.22,.48,.49,.47l3.41-.05c.26,0,.48-.22,.47-.49l-.06-4.05c0-.26-.22-.48-.49-.47l-3.41,.05c-.26,0-.48,.22-.47,.49Zm1.52,.96c0-.14,.11-.25,.25-.25l1.67-.02c.14,0,.25,.11,.25,.25l.04,2.82c0,.14-.11,.25-.25,.25l-1.67,.02c-.14,0-.25-.11-.25-.25l-.04-2.82Z"/>
      <polygon class="cls-16" points="43.87 131.33 43.28 130.46 43.93 128.97 46.14 127.81 48.25 129.14 48.24 131.27 43.87 131.33"/>
      <path class="cls-16" d="M46.3,128.16l.32-.46c.08-.11,.23-.14,.34-.06l1.14,.78c.11,.08,.14,.23,.06,.34l-.32,.46-1.54-1.06Z"/>
    </g>
    <rect class="cls-47" x="50.21" y="149.63" width="3.88" height="4.77"/>
    <g>
      <rect class="cls-47" x="51.53" y="143.89" width="11.97" height="31.34"/>
      <path class="cls-19" d="M63.5,123.37h-10.24c-.95,0-1.73,.77-1.73,1.73v18.79h11.97v-20.52Z"/>
      <path class="cls-46" d="M75.46,143.89v-18.79c0-.95-.77-1.73-1.73-1.73h-10.24v20.52h11.97Z"/>
      <rect class="cls-20" x="63.5" y="143.89" width="11.97" height="31.34"/>
    </g>
    <rect class="cls-43" x="63.5" y="128.36" width=".02" height="12.93"/>
    <g>
      <path class="cls-23" d="M63.5,127.16h-8.61c-.95,0-1.73,.77-1.73,1.73v7.24h10.33v-8.96Z"/>
      <path class="cls-43" d="M63.5,135.28h-10.33v3.11c0,.95,.77,1.73,1.73,1.73h8.63v-.02h-.02v-4.82Z"/>
      <path class="cls-43" d="M63.52,136.12h10.33v-7.26c0-.95-.77-1.73-1.73-1.73h-8.63v.02h.02v8.96Z"/>
      <path class="cls-23" d="M63.52,135.28v4.82h8.61c.95,0,1.73-.77,1.73-1.73v-3.09h-10.33Z"/>
    </g>
    <rect class="cls-36" x="58.75" y="136.32" width="2.24" height="2.75"/>
    <rect class="cls-16" x="66" y="136.32" width="2.24" height="2.75"/>
    <rect class="cls-36" x="55.12" y="136.32" width="2.24" height="2.75"/>
    <rect class="cls-16" x="69.63" y="136.32" width="2.24" height="2.75"/>
    <g>
      <rect class="cls-36" x="62.38" y="136.32" width="1.12" height="2.75"/>
      <rect class="cls-16" x="63.5" y="136.32" width="1.12" height="2.75"/>
    </g>
    <g>
      <rect class="cls-36" x="55.53" y="129.4" width="7.96" height="4.23"/>
      <rect class="cls-16" x="63.49" y="129.4" width="7.97" height="4.23"/>
    </g>
  </g>
  <g>
    <g>
      <path class="cls-47" d="M177.8,122.65c-.5,0-.91,.41-.91,.91s.41,.91,.91,.91h8.25v-1.81h-8.25Z"/>
      <path class="cls-20" d="M194.31,122.65h-8.25v1.81h8.25c.5,0,.91-.41,.91-.91s-.41-.91-.91-.91Z"/>
    </g>
    <path class="cls-36" d="M167.11,167.18c-.09,0-.19,0-.28,0-2.5-.07-4.27-.98-5.26-2.71-2.34-4.1,.3-11.85,3.27-17.24,3.64-6.59,2.22-13.15,2.21-13.22-.05-.22,.09-.44,.31-.49,.22-.05,.44,.09,.49,.31,.06,.28,1.51,6.92-2.29,13.8-3.1,5.62-5.31,12.88-3.28,16.43,.84,1.46,2.37,2.24,4.57,2.3,2.09,.06,3.59-.59,4.45-1.92,2.33-3.61-.39-11.27-.86-12.24-.06-.13-.05-.28,.02-.4,.07-.12,.21-.19,.35-.19h5.8c.23,0,.41,.18,.41,.41s-.18,.41-.41,.41h-5.21c.75,2.03,2.93,8.8,.58,12.45-.99,1.53-2.63,2.3-4.88,2.3Z"/>
    <g>
      <path class="cls-16" d="M168.49,135.39v.59c.01,.26-.2,.48-.46,.49h-.66c-.26,.01-.48-.2-.49-.46v-.59s1.62-.02,1.62-.02Z"/>
      <path class="cls-16" d="M169.83,135.19c-.18-.33-.64-1.28-.69-1.74,0-.03,0-.08,.06-.14,.23-.26,.94-.42,1.09-.42v-.48c-.1,0-1.04,.14-1.44,.58-.14,.15-.2,.33-.18,.52,.06,.64,.72,1.86,.74,1.91l.42-.23Z"/>
      <path class="cls-24" d="M170.2,128.73l1.13-1.84,2.24-1.25-.41-.74-2.34,1.3c-.06,.04-.12,.09-.16,.15l-1.19,1.94,.73,.45Z"/>
      <path class="cls-47" d="M166.42,131.13l.06,4.05c0,.26,.22,.48,.49,.47l3.41-.05c.26,0,.48-.22,.47-.49l-.06-4.05c0-.26-.22-.48-.49-.47l-3.41,.05c-.26,0-.48,.22-.47,.49Zm1.52,.96c0-.14,.11-.25,.25-.25l1.67-.02c.14,0,.25,.11,.25,.25l.04,2.82c0,.14-.11,.25-.25,.25l-1.67,.02c-.14,0-.25-.11-.25-.25l-.04-2.82Z"/>
      <polygon class="cls-16" points="166.42 131.33 165.83 130.46 166.48 128.97 168.69 127.81 170.8 129.14 170.79 131.27 166.42 131.33"/>
      <path class="cls-16" d="M168.85,128.16l.32-.46c.08-.11,.23-.14,.34-.06l1.14,.78c.11,.08,.14,.23,.06,.34l-.32,.46-1.54-1.06Z"/>
    </g>
    <rect class="cls-47" x="172.76" y="149.63" width="3.88" height="4.77"/>
    <g>
      <rect class="cls-46" x="174.09" y="143.89" width="11.97" height="31.34"/>
      <path class="cls-19" d="M186.05,123.37h-10.24c-.95,0-1.73,.77-1.73,1.73v18.79h11.97v-20.52Z"/>
      <path class="cls-46" d="M198.02,143.89v-18.79c0-.95-.77-1.73-1.73-1.73h-10.24v20.52h11.97Z"/>
      <rect class="cls-19" x="186.05" y="143.89" width="11.97" height="31.34"/>
    </g>
    <rect class="cls-43" x="186.05" y="128.36" width=".02" height="12.93"/>
    <g>
      <path class="cls-23" d="M186.05,127.16h-8.61c-.95,0-1.73,.77-1.73,1.73v7.24h10.33v-8.96Z"/>
      <path class="cls-43" d="M186.05,135.28h-10.33v3.11c0,.95,.77,1.73,1.73,1.73h8.63v-.02h-.02v-4.82Z"/>
      <path class="cls-43" d="M186.08,136.12h10.33v-7.26c0-.95-.77-1.73-1.73-1.73h-8.63v.02h.02v8.96Z"/>
      <path class="cls-23" d="M186.08,135.28v4.82h8.61c.95,0,1.73-.77,1.73-1.73v-3.09h-10.33Z"/>
    </g>
    <rect class="cls-36" x="181.3" y="136.32" width="2.24" height="2.75"/>
    <rect class="cls-16" x="188.56" y="136.32" width="2.24" height="2.75"/>
    <rect class="cls-36" x="177.68" y="136.32" width="2.24" height="2.75"/>
    <rect class="cls-16" x="192.18" y="136.32" width="2.24" height="2.75"/>
    <g>
      <rect class="cls-36" x="184.93" y="136.32" width="1.12" height="2.75"/>
      <rect class="cls-16" x="186.05" y="136.32" width="1.12" height="2.75"/>
    </g>
    <g>
      <rect class="cls-36" x="178.09" y="129.4" width="7.96" height="4.23"/>
      <rect class="cls-16" x="186.04" y="129.4" width="7.97" height="4.23"/>
    </g>
  </g>
  <g>
    <rect class="cls-20" x="29.91" y="109.01" width="20.64" height="6.13"/>
    <rect class="cls-47" x="29.91" y="102.88" width="20.64" height="6.13"/>
    <rect class="cls-47" x="184.11" y="102.88" width="20.64" height="6.13"/>
    <rect class="cls-20" x="184.11" y="109.01" width="20.64" height="6.13"/>
  </g>
  <g>
    <rect class="cls-36" x="18.53" y="77.54" width="7.96" height="97.69"/>
    <rect class="cls-16" x="26.49" y="77.54" width="7.96" height="97.69"/>
  </g>
  <g>
    <rect class="cls-16" x="208.47" y="77.54" width="7.96" height="97.69"/>
    <rect class="cls-36" x="200.51" y="77.54" width="7.96" height="97.69"/>
  </g>
  <!-- <g>
    <rect class="cls-43" x="264.37" y="51.63" width="88.4" height="123.6"/>
    <rect class="cls-26" x="264.37" y="158.04" width="88.4" height="17.18"/>
    <rect class="cls-26" x="341.03" y="51.63" width="100.15" height="123.6"/>
  </g> -->
  <!-- <rect class="cls-47" x="260.85" y="52.93" width="183.84" height="24.86"/> -->
  <!-- <g>
    <rect class="cls-36" x="280.08" y="111.13" width="20.15" height="64.23"/>
    <rect class="cls-16" x="300.23" y="111.13" width="20.15" height="64.23"/>
  </g> -->
  <!-- <rect class="cls-51" x="283.14" y="114.3" width="34.18" height="29.43"/> -->
  <g>
    <rect class="cls-39" x="213.27" y="164.13" width="7.23" height="2.55"/>
    <path class="cls-47" d="M205.73,148.44c2.35,.98,2.2,1.87-.35,1.98l-67.62,3.68c-2.55,.11-2.82-.84-.61-2.11l17.02-9.83c2.21-1.27,6.11-2.36,8.65-2.42l18.36-.66c2.55-.06,6.56,.7,8.91,1.68l15.63,7.68Z"/>
    <path class="cls-27" d="M154.75,143.16c2.04-1.17,5.75-2.21,8.1-2.26l18.62-.66c2.41,0,6.08,.71,8.19,1.59l15.17,7.46-67.01,3.65,16.93-9.78Z"/>
    <path class="cls-22" d="M147.16,155.12c.06,.48-.27,.91-.74,.98h0c-.48,.06-.91-.27-.98-.74l-.73-5.36c-.06-.48,.27-.91,.74-.98h0c.48-.06,.91,.27,.98,.74l.73,5.36Z"/>
    <path class="cls-1" d="M154.04,152.05l8.02-11.1c.27-.03,.53-.04,.78-.05l.82-.03-7.74,11.08-1.89,.1Z"/>
    <path class="cls-1" d="M181.46,140.23c.11,0,.23,0,.35,.01l-7.78,10.72-1.9,.1,8-10.78,1.34-.05Z"/>
    <path class="cls-1" d="M151.82,144.85l2.93-1.69c.44-.26,.98-.5,1.55-.73l-8.94,9.99-2.66,.14,7.12-7.71Z"/>
    <rect class="cls-47" x="162.63" y="140.23" width="1.35" height="14.71"/>
    <rect class="cls-47" x="185.29" y="139.94" width="1.35" height="14.71"/>
    <path class="cls-47" d="M116.61,170.37h97.89c1.29-.79,2.01-2.28,1.74-3.99l-1.14-6.82-1.17-6.97c-.07-.46-.21-.9-.41-1.31-.87-1.84-2.87-3.1-4.95-2.97l-82.64,5.15c-2.67,0-6.49,1.57-8.42,3.95-.58,.71-.99,1.49-1.14,2.33l-.44,2.07-.98,4.58c-.3,1.7,.4,3.2,1.67,3.98Z"/>
    <path class="cls-20" d="M116.44,170.25h98.24c1.18-.81,1.83-2.24,1.56-3.88l-1.14-6.82-.38-2.29H117.62s-.08,.09-.12,.14c-.58,.71-.99,1.49-1.14,2.33l-.44,2.07-.98,4.58c-.29,1.63,.34,3.06,1.5,3.87Z"/>
    <path class="cls-39" d="M115.6,169.44c.69,.93,1.81,1.51,3.17,1.51h93.57c1.36,0,2.49-.59,3.19-1.51H115.6Z"/>
    <path class="cls-17" d="M178.44,152.18c.01,.44,.38,.79,.82,.78l3.49-.09c.44-.01,.79-.38,.78-.82h0c-.01-.44-.38-.79-.82-.78l-3.49,.09c-.44,.01-.79,.38-.78,.82h0Z"/>
    <path class="cls-17" d="M154.87,153c.01,.44,.38,.79,.82,.78l3.49-.09c.44-.01,.79-.38,.78-.82h0c-.01-.44-.38-.79-.82-.78l-3.49,.09c-.44,.01-.79,.38-.78,.82h0Z"/>
    <g>
      <path class="cls-49" d="M123.51,159.63c0-.61-.25-1.17-.65-1.57-.4-.41-.95-.65-1.57-.65h-3.79c-.58,.71-.99,1.49-1.14,2.33l-.03,.16h7.16c.01-.09,.03-.17,.03-.26Z"/>
      <path class="cls-19" d="M116.32,159.89l-.41,1.92c.13,.02,.27,.04,.41,.04h4.97c1.13,0,2.06-.86,2.19-1.96h-7.16Z"/>
    </g>
    <g>
      <path class="cls-49" d="M213.92,152.59c-.07-.46-.21-.9-.41-1.31h-2.22c-1.76,0-3.18,1.42-3.18,3.18v1.92c0,.31,.06,.61,.14,.89h6.45l-.78-4.68Z"/>
      <path class="cls-19" d="M208.26,157.27c.39,1.32,1.59,2.29,3.04,2.29h3.8l-.38-2.29h-6.45Z"/>
    </g>
    <g>
      <rect class="cls-19" x="117.36" y="162.49" width="1.06" height="2.53"/>
      <rect class="cls-49" x="116.3" y="162.49" width="1.06" height="2.53"/>
    </g>
    <g>
      <rect class="cls-19" x="213.27" y="161.09" width="1.06" height="2.53"/>
      <rect class="cls-49" x="212.21" y="161.09" width="1.06" height="2.53"/>
    </g>
    <g>
      <path class="cls-39" d="M132.37,170.37c-.02-.2-.03-.4-.03-.6,0-3.47,2.82-6.29,6.29-6.29s6.29,2.82,6.29,6.29c0,.2-.01,.4-.03,.6h1.56c.01-.2,.02-.4,.02-.6,0-4.32-3.52-7.84-7.84-7.84s-7.84,3.52-7.84,7.84c0,.2,0,.4,.02,.6h1.56Z"/>
      <g>
        <path class="cls-45" d="M131.99,169.77c0,3.66,2.97,6.63,6.63,6.63v-13.27c-3.66,0-6.63,2.97-6.63,6.64Z"/>
        <path class="cls-44" d="M138.63,163.13h0v13.27h0c3.66,0,6.63-2.97,6.63-6.63s-2.97-6.64-6.63-6.64Z"/>
      </g>
      <g>
        <path class="cls-40" d="M135.15,169.77c0,1.92,1.56,3.48,3.48,3.48v-6.96c-1.92,0-3.48,1.56-3.48,3.48Z"/>
        <path class="cls-11" d="M138.63,166.28h0v6.96h0c1.92,0,3.48-1.56,3.48-3.48s-1.56-3.48-3.48-3.48Z"/>
      </g>
      <g>
        <path class="cls-18" d="M138.63,167.28h0v4.96h0c1.37,0,2.48-1.11,2.48-2.48s-1.11-2.48-2.48-2.48Z"/>
        <path class="cls-7" d="M136.15,169.77c0,1.37,1.11,2.48,2.48,2.48v-4.96c-1.37,0-2.48,1.11-2.48,2.48Z"/>
      </g>
    </g>
    <g>
      <g>
        <path class="cls-39" d="M192.06,170.37c-.05-.33-.08-.68-.08-1.03,0-3.66,2.97-6.64,6.63-6.64s6.64,2.98,6.64,6.64c0,.35-.03,.69-.08,1.03h.87c.05-.34,.07-.68,.07-1.03,0-4.14-3.36-7.49-7.49-7.49s-7.49,3.36-7.49,7.49c0,.35,.03,.69,.07,1.03h.87Z"/>
        <path class="cls-39" d="M191.55,170.37c-.05-.34-.08-.68-.08-1.03,0-3.94,3.2-7.15,7.14-7.15s7.15,3.21,7.15,7.15c0,.35-.03,.69-.08,1.03h.7c.04-.34,.07-.68,.07-1.03,0-4.32-3.52-7.84-7.84-7.84s-7.84,3.52-7.84,7.84c0,.34,.03,.69,.07,1.03h.7Z"/>
        <path class="cls-39" d="M192.32,169.34c0-3.47,2.82-6.29,6.29-6.29s6.29,2.82,6.29,6.29c0,.35-.03,.69-.09,1.03h.7c.05-.34,.08-.68,.08-1.03,0-3.85-3.13-6.99-6.99-6.99s-6.98,3.13-6.98,6.99c0,.34,.03,.69,.08,1.03h.7c-.06-.34-.09-.68-.09-1.03Z"/>
      </g>
      <g>
        <path class="cls-45" d="M198.61,162.7c-3.67,0-6.64,2.97-6.64,6.64s2.97,6.63,6.64,6.63c0,0,0,0,0,0v-13.27s0,0,0,0Z"/>
        <path class="cls-44" d="M205.24,169.34c0-3.66-2.97-6.64-6.63-6.64v13.27c3.66,0,6.63-2.97,6.63-6.63Z"/>
      </g>
      <g>
        <path class="cls-40" d="M198.61,165.86c-1.92,0-3.48,1.56-3.48,3.48s1.56,3.48,3.48,3.48c0,0,0,0,0,0v-6.96s0,0,0,0Z"/>
        <path class="cls-11" d="M202.09,169.34c0-1.92-1.55-3.48-3.48-3.48v6.96c1.92,0,3.48-1.56,3.48-3.48Z"/>
      </g>
      <g>
        <path class="cls-7" d="M198.61,166.86c-1.37,0-2.48,1.11-2.48,2.48s1.11,2.48,2.48,2.48c0,0,0,0,0,0v-4.96s0,0,0,0Z"/>
        <path class="cls-18" d="M201.09,169.34c0-1.37-1.11-2.48-2.48-2.48v4.96c1.37,0,2.48-1.11,2.48-2.48Z"/>
      </g>
    </g>
  </g>
  <rect class="cls-16" x="10.96" y="77.79" width="31.05" height="9.83"/>
  <rect class="cls-16" x="193.16" y="77.79" width="31.05" height="9.83"/>
  <g>
    <rect class="cls-47" x="4.5" y="61.69" width="113.08" height="19.27"/>
    <rect class="cls-20" x="117.58" y="61.69" width="113.08" height="19.27"/>
  </g>
  <g>
    <rect class="cls-46" x="24.23" y="50.34" width="93.36" height="20.99"/>
    <rect class="cls-19" x="117.58" y="50.34" width="93.36" height="20.99"/>
  </g>
  <g>
    <g>
      <path class="cls-50" d="M118.07,152.08l-5.98-13.4c-1.16,.52-1.69,1.88-1.17,3.05l4.1,9.19c.52,1.16,1.88,1.69,3.05,1.17Z"/>
      <path class="cls-32" d="M119.24,149.03l-4.1-9.19c-.52-1.16-1.88-1.69-3.05-1.17l5.98,13.4c1.16-.52,1.69-1.88,1.17-3.05Z"/>
    </g>
    <g>
      <path class="cls-38" d="M110.53,129.56c-1.29,.24-2.14,1.48-1.89,2.77l1.32,7.04,2.33-.44-1.76-9.37Z"/>
      <path class="cls-50" d="M109.95,139.36l.59,3.14c.24,1.29,1.48,2.14,2.77,1.9l-1.03-5.48-2.33,.44Z"/>
      <path class="cls-32" d="M112.29,138.93l1.03,5.48c1.29-.24,2.14-1.48,1.9-2.77l-.59-3.14-2.33,.44Z"/>
      <path class="cls-5" d="M114.62,138.49l-1.32-7.04c-.24-1.29-1.48-2.14-2.77-1.89l1.76,9.37,2.33-.44Z"/>
    </g>
    <g>
      <path class="cls-2" d="M113.96,172.81c0,1.27-1.32,2.29-2.94,2.29s-2.94-1.02-2.94-2.29,1.32-2.29,2.94-2.29,2.94,1.03,2.94,2.29Z"/>
      <rect class="cls-42" x="108.01" y="148.42" width="5.89" height="24.29"/>
    </g>
    <g>
      <path class="cls-34" d="M108.84,172.81c0,1.27-1.32,2.29-2.94,2.29s-2.94-1.02-2.94-2.29,1.32-2.29,2.94-2.29,2.94,1.03,2.94,2.29Z"/>
      <rect class="cls-25" x="102.95" y="148.52" width="5.89" height="24.29"/>
    </g>
    <path class="cls-38" d="M114.13,138.29c.01-3.29-.73-6.99-3.23-8.53,0,0,.27,1.79-.56,2.1-1.15,.43-2.6-1.76-3.04-2.08l-.15-.31c-2.63,.36-4.47,2.46-4.48,6.03l-.41,18.59h12.32l-.44-15.8Z"/>
    <g>
      <path class="cls-32" d="M107.12,128.05v1.53s-.39,.81,.56,1.89c.56,.65,3.05,2.06,3.05,2.06l.89-2.38-.73-1.44,.08-1.83-3.85,.16Z"/>
      <path class="cls-50" d="M113.23,124.43c0-.93,.09-2.26-.33-2.98-.71-1.22-2.27-1.55-3.65-1.55-2.2,0-4.61,1.73-4.61,4.23s2.41,4.83,4.61,4.83,3.98-2.03,3.98-4.53Z"/>
      <path class="cls-12" d="M105.73,125.71c-.33-.21-.63-.52-.77-.89-.19-.49-.06-1.13,.49-1.3,.21-.06,.45-.06,.68-.02-.23-.78,.23-3.1,1.04-3.31,1.73-.46,4.41-.37,5-.29,.45,.06,.74,1.87,.91,2.26,.22,.51,.14,2.1,.15,2.27,.1-.17,.06-2.23,.06-2.28,.02-.37-.2-1.98-.46-2.43-.35-.6-.89-1.12-1.5-1.45-1.14-.63-2.19-.74-3.87-.48-.28,.04-3.24,.6-3.66,4.33-.11,.93,.17,2.34,.7,3.32,.09,.17,.31,.64,1.44,1.85,.01,.01-.13-1.54-.2-1.58Z"/>
      <path class="cls-12" d="M112.25,118.87c-2.62-1.75-7.48-.22-7.3,3.76,0,.08,.33,2.73,1.09,3.4,.12,.1,.21-.36,.22-.51,.13-1.59-.16-3.81,1.25-4.88,0,0,0,0,0-.01,.14,.36,.38,.68,.63,.97,.31,.37,.71,.76,1.18,.92,.09,.03,.19-.05,.19-.14-.02-.39-.02-.76,.02-1.14,.33,.39,.8,.65,1.31,.7,.09,0,.16-.08,.16-.16,.02-.31-.05-.74,.04-1.08,1.45,.36,1.51,1.68,1.78,2.92,.06,.27,.16,2.17,.41,1.81,1.03-1.46,.7-5.42-1-6.55Z"/>
    </g>
    <g>
      <path class="cls-38" d="M104.87,130.19c-1.3-.17-2.49,.75-2.66,2.05l-.91,7.1,2.35,.3,1.21-9.46Z"/>
      <path class="cls-50" d="M101.3,139.35l-.41,3.17c-.17,1.3,.75,2.49,2.05,2.66l.71-5.53-2.35-.3Z"/>
      <path class="cls-32" d="M103.66,139.65l-.71,5.53c1.3,.17,2.49-.75,2.66-2.05l.41-3.17-2.35-.3Z"/>
      <path class="cls-5" d="M106.01,139.95l.91-7.1c.17-1.3-.75-2.49-2.05-2.66l-1.21,9.46,2.35,.3Z"/>
    </g>
    <g>
      <path class="cls-50" d="M110.24,153.8l-8.29-12.63c-1.1,.72-1.4,2.19-.68,3.29l5.68,8.66c.72,1.1,2.19,1.4,3.29,.68Z"/>
      <path class="cls-32" d="M110.92,150.52l-5.68-8.66c-.72-1.1-2.19-1.4-3.29-.68l8.29,12.63c1.1-.72,1.4-2.19,.68-3.29Z"/>
    </g>
  </g>
  <g>
    <!-- <rect class="cls-46" x="283.96" width="70.68" height="52.93"/> -->
    <!-- <rect class="cls-19" x="354.64" width="70.68" height="52.93"/> -->
  </g>
  <!-- <g>
    <path class="cls-6" d="M300.99,7.65c3.11,0,3.3,0,5.94,.72v2.91c-.12,0-2.29-.43-4.77-.43-1.82,0-2.13,.88-2.13,4.07s.12,3.81,1.84,3.81c1.21,0,1.41-.9,1.41-.9v-1.47h-.96v-2.35c.88-.47,2.13-.49,3.42-.49,.41,0,.86,.02,1.33,.06v8.52h-2.68l-1.08-.96c-.55,.72-.86,.96-2.42,1.06-4.05,.25-4.65-3.3-4.65-7.33,0-4.36,.86-7.23,4.75-7.23Z"/>
    <path class="cls-6" d="M312.62,7.8h4.48l4.34,14.31h-3.89l-.84-2.5h-3.85l-.82,2.5h-3.89l4.48-14.31Zm3.32,8.58l-1.04-3.83-1.19,3.83h2.23Z"/>
    <path class="cls-6" d="M321.68,11.56c0-2.56,1.68-3.73,3.87-3.87,2.89-.18,4.61,.12,6.06,.65v2.95c-1.25-.14-3.4-.2-4.69-.2-1.06,0-1.45,.04-1.45,.86v.21c0,.61,.12,.94,1.17,.94h1.84c2.97,0,3.66,2.58,3.66,4.14v.64c0,3.64-2.03,4.38-3.97,4.38-3.66,0-4.09,0-6.04-.66v-2.95c.78,.08,3.25,.22,5.06,.22,.84,0,1.15-.22,1.15-.8v-.31c0-.57-.18-.86-1.04-.86h-1.76c-3.71,0-3.87-3.23-3.87-4.14v-1.19Z"/>
    <path class="cls-6" d="M338.21,11.56c0-2.56,1.68-3.73,3.87-3.87,2.89-.18,4.61,.12,6.06,.65v2.95c-1.25-.14-3.4-.2-4.69-.2-1.06,0-1.45,.04-1.45,.86v.21c0,.61,.12,.94,1.17,.94h1.84c2.97,0,3.66,2.58,3.66,4.14v.64c0,3.64-2.03,4.38-3.97,4.38-3.66,0-4.09,0-6.04-.66v-2.95c.78,.08,3.25,.22,5.06,.22,.84,0,1.15-.22,1.15-.8v-.31c0-.57-.18-.86-1.04-.86h-1.76c-3.71,0-3.87-3.23-3.87-4.14v-1.19Z"/>
    <path class="cls-6" d="M348.94,7.8h11.1v3.4h-3.71v10.91h-3.79V11.21h-3.6v-3.4Z"/>
    <path class="cls-6" d="M363.13,7.8h4.48l4.34,14.31h-3.89l-.84-2.5h-3.85l-.82,2.5h-3.89l4.48-14.31Zm3.32,8.58l-1.04-3.83-1.19,3.83h2.23Z"/>
    <path class="cls-6" d="M370.59,7.8h11.1v3.4h-3.71v10.91h-3.79V11.21h-3.6v-3.4Z"/>
    <path class="cls-6" d="M382.94,7.8h3.79v14.31h-3.79V7.8Z"/>
    <path class="cls-6" d="M394.02,7.71c3.38,0,5.92,.65,5.92,7.35,0,6.31-2.4,7.13-5.92,7.13s-5.92-.63-5.92-7.13,2.64-7.35,5.92-7.35Zm0,11.08c1.68,0,2.13-.7,2.13-3.73,0-3.32-.35-3.95-2.13-3.95s-2.13,.45-2.13,3.95c0,2.99,.21,3.73,2.13,3.73Z"/>
    <path class="cls-6" d="M401.29,7.8h3.83l4.08,7.31V7.8h3.79v14.31h-3.79l-4.1-7.11v7.11h-3.81V7.8Z"/>
    <path class="cls-6" d="M308.83,31.25h3.79v14.31h-3.79v-14.31Z"/>
    <path class="cls-6" d="M318.81,31.1c2.82,0,3.48,.16,5.16,.78v2.95s-1.97-.33-3.99-.33c-1.64,0-2.33-.08-2.33,3.91,0,3.21,.37,3.87,2.34,3.87s3.97-.18,3.97-.18v2.95c-1.21,.51-2.27,.68-5.16,.63-3.62-.06-4.95-2.5-4.95-7.31s1.06-7.27,4.95-7.27Z"/>
    <path class="cls-6" d="M330.6,31.15c3.38,0,5.92,.65,5.92,7.35,0,6.31-2.4,7.13-5.92,7.13s-5.92-.63-5.92-7.13,2.64-7.35,5.92-7.35Zm0,11.08c1.68,0,2.13-.7,2.13-3.73,0-3.32-.35-3.95-2.13-3.95s-2.13,.45-2.13,3.95c0,2.99,.21,3.73,2.13,3.73Z"/>
    <path class="cls-6" d="M337.86,31.25h3.83l4.08,7.31v-7.31h3.79v14.31h-3.79l-4.1-7.11v7.11h-3.81v-14.31Z"/>
    <path class="cls-6" d="M350.93,35c0-2.56,1.68-3.73,3.87-3.87,2.89-.18,4.61,.12,6.06,.65v2.95c-1.25-.14-3.4-.2-4.69-.2-1.06,0-1.45,.04-1.45,.86v.21c0,.61,.12,.94,1.17,.94h1.84c2.97,0,3.66,2.58,3.66,4.14v.65c0,3.64-2.03,4.38-3.97,4.38-3.66,0-4.08,0-6.04-.66v-2.95c.78,.08,3.25,.22,5.06,.22,.84,0,1.15-.22,1.15-.8v-.31c0-.57-.18-.86-1.04-.86h-1.76c-3.71,0-3.87-3.23-3.87-4.14v-1.19Z"/>
    <path class="cls-6" d="M367.46,35c0-2.56,1.68-3.73,3.87-3.87,2.89-.18,4.61,.12,6.06,.65v2.95c-1.25-.14-3.4-.2-4.69-.2-1.06,0-1.45,.04-1.45,.86v.21c0,.61,.12,.94,1.17,.94h1.84c2.97,0,3.66,2.58,3.66,4.14v.65c0,3.64-2.03,4.38-3.97,4.38-3.66,0-4.09,0-6.04-.66v-2.95c.78,.08,3.25,.22,5.06,.22,.84,0,1.15-.22,1.15-.8v-.31c0-.57-.18-.86-1.04-.86h-1.76c-3.71,0-3.87-3.23-3.87-4.14v-1.19Z"/>
    <path class="cls-6" d="M379.17,34.57c0-2.95,2.25-3.32,3.64-3.32,0,0,4.1,0,6.39,.31v3.19h-5.22c-1.02,0-1.02,.57-1.02,1.09v.86l5.26,.21v3.15l-5.26,.18v.86c0,1.04,.64,1.02,1.21,1.02h5.02v3.17c-2.01,.27-6.2,.33-6.2,.33-1.26,.04-3.83-.21-3.83-3.21v-7.84Z"/>
    <path class="cls-6" d="M389.85,31.25h11.1v3.4h-3.71v10.91h-3.79v-10.91h-3.6v-3.4Z"/>
  </g> -->
  <path class="cls-26" d="M317.32,147.69c0,.61-.5,1.11-1.11,1.11h-4.16c-.61,0-1.11-.5-1.11-1.11h0c0-.61,.5-1.11,1.11-1.11h4.16c.61,0,1.11,.5,1.11,1.11h0Z"/>
  <!-- <g>
    <rect class="cls-20" x="329.79" y="52.93" width="22.98" height="21.45"/>
    <rect class="cls-20" x="283.83" y="52.93" width="22.98" height="21.45"/>
    <rect class="cls-20" x="375.75" y="52.93" width="22.98" height="21.45"/>
    <rect class="cls-20" x="421.71" y="52.93" width="22.98" height="21.45"/>
  </g> -->
  <!-- <g>
    <g>
      <rect class="cls-36" x="347.99" y="87.62" width="41.53" height="67.5"/>
      <rect class="cls-16" x="389.52" y="87.62" width="41.53" height="67.5"/>
    </g>
    <g>
      <rect class="cls-51" x="350.52" y="90.36" width="39" height="62.02"/>
      <rect class="cls-28" x="389.52" y="90.36" width="39" height="62.02"/>
    </g>
    <path class="cls-1" d="M364.04,102.61c0,2.55-2.07,4.61-4.61,4.61h0c-2.55,0-4.61-2.07-4.61-4.61v-4.03c0-2.55,2.07-4.61,4.61-4.61h0c2.55,0,4.61,2.07,4.61,4.61v4.03Z"/>
  </g>
  <g>
    <rect class="cls-51" x="283.14" y="114.3" width="17.09" height="29.43"/>
    <rect class="cls-28" x="300.23" y="114.3" width="17.09" height="29.43"/>
  </g> -->
  <!-- <g>
    <path class="cls-13" d="M89.06,55.71h5.15c1.5,0,3.32,.47,3.32,3.7,0,3.66-1.95,3.92-3.32,3.86-.66-.03-2.78-.28-2.86-.33v4.76h-2.29v-11.99Zm4.97,5.53c.73,0,1.2-.37,1.2-1.81-.02-1.42-.62-1.68-1.2-1.68h-2.68v3.5h2.68Z"/>
    <path class="cls-13" d="M99.03,58.2c0-2.08,1.47-2.51,2.6-2.49,0,0,4.22,.12,5.27,.26v1.9h-4.73c-.85,0-.85,.47-.85,.92v1.87l4.84,.17v1.88l-4.84,.16v1.87c0,.87,.54,.85,1.02,.85h4.57v1.88c-.93,.13-5.11,.28-5.11,.28-1.07,.05-2.77-.19-2.77-2.4v-7.14Z"/>
    <path class="cls-13" d="M107.88,55.71h8.86v2.11h-3.33v9.87h-2.29v-9.87h-3.23v-2.11Z"/>
    <path class="cls-13" d="M117.92,55.71h5.24c1.87,0,3.26,.88,3.26,3.74s-1.24,3.32-1.91,3.53l2.27,4.72h-2.58l-1.98-4.54-2.01-.23v4.76h-2.29v-11.99Zm5.02,5.42c.8,0,1.18-.23,1.18-1.68,0-1.36-.46-1.7-1.18-1.7h-2.72v3.38h2.72Z"/>
    <path class="cls-13" d="M132.34,55.63c2.83,0,4.81,.54,4.81,6.16,0,5.29-1.86,5.98-4.81,5.98s-4.82-.52-4.82-5.98,2.07-6.16,4.82-6.16Zm0,10.02c1.92,0,2.51-.63,2.51-3.86,0-3.73-.69-4.05-2.51-4.05s-2.53,.23-2.53,4.05c0,3.27,.48,3.86,2.53,3.86Z"/>
    <path class="cls-13" d="M138.69,55.71h2.29v9.02c0,.87,.54,.85,1.02,.85h4.11v2.11h-4.92c-1.31,0-2.5-.48-2.5-2.33v-9.65Z"/>
  </g> -->
</svg>