<svg xmlns="http://www.w3.org/2000/svg" width="10.903" height="19.254" viewBox="0 0 10.903 19.254">
  <g id="ic_mob" transform="translate(-5.951)">
    <g id="Group_173" data-name="Group 173" transform="translate(5.951)">
      <path id="Path_398" data-name="Path 398" d="M15.453,0h-8.1a1.4,1.4,0,0,0-1.4,1.4v16.45a1.4,1.4,0,0,0,1.4,1.4h8.1a1.4,1.4,0,0,0,1.4-1.4V1.4A1.4,1.4,0,0,0,15.453,0ZM9.4.852h4c.1,0,.183.151.183.337s-.082.338-.183.338h-4c-.1,0-.182-.152-.182-.338S9.3.852,9.4.852Zm2,17.018a.895.895,0,1,1,.893-.9A.9.9,0,0,1,11.4,17.87ZM15.8,14.8H7V2.367h8.8V14.8Z" transform="translate(-5.951)" fill="#707070"/>
    </g>
  </g>
</svg>
