<?xml version="1.0" standalone="no"?>
<svg xmlns:xlink="http://www.w3.org/1999/xlink" id="wave" style="transform:rotate(0deg); transition: 0.3s" viewBox="0 0 1440 490" version="1.1" xmlns="http://www.w3.org/2000/svg"><defs><linearGradient id="sw-gradient-0" x1="0" x2="0" y1="1" y2="0"><stop stop-color="rgba(255, 72, 0, 1)" offset="0%"/><stop stop-color="rgba(249.422, 152.799, 47.86, 0.5)" offset="100%"/></linearGradient></defs><path style="transform:translate(0, 0px); opacity:1" fill="url(#sw-gradient-0)" d="M0,0L26.7,16.3C53.3,33,107,65,160,106.2C213.3,147,267,196,320,196C373.3,196,427,147,480,147C533.3,147,587,196,640,212.3C693.3,229,747,212,800,204.2C853.3,196,907,196,960,204.2C1013.3,212,1067,229,1120,212.3C1173.3,196,1227,147,1280,106.2C1333.3,65,1387,33,1440,89.8C1493.3,147,1547,294,1600,318.5C1653.3,343,1707,245,1760,212.3C1813.3,180,1867,212,1920,236.8C1973.3,261,2027,278,2080,253.2C2133.3,229,2187,163,2240,179.7C2293.3,196,2347,294,2400,351.2C2453.3,408,2507,425,2560,383.8C2613.3,343,2667,245,2720,212.3C2773.3,180,2827,212,2880,196C2933.3,180,2987,114,3040,98C3093.3,82,3147,114,3200,122.5C3253.3,131,3307,114,3360,155.2C3413.3,196,3467,294,3520,310.3C3573.3,327,3627,261,3680,269.5C3733.3,278,3787,359,3813,400.2L3840,441L3840,490L3813.3,490C3786.7,490,3733,490,3680,490C3626.7,490,3573,490,3520,490C3466.7,490,3413,490,3360,490C3306.7,490,3253,490,3200,490C3146.7,490,3093,490,3040,490C2986.7,490,2933,490,2880,490C2826.7,490,2773,490,2720,490C2666.7,490,2613,490,2560,490C2506.7,490,2453,490,2400,490C2346.7,490,2293,490,2240,490C2186.7,490,2133,490,2080,490C2026.7,490,1973,490,1920,490C1866.7,490,1813,490,1760,490C1706.7,490,1653,490,1600,490C1546.7,490,1493,490,1440,490C1386.7,490,1333,490,1280,490C1226.7,490,1173,490,1120,490C1066.7,490,1013,490,960,490C906.7,490,853,490,800,490C746.7,490,693,490,640,490C586.7,490,533,490,480,490C426.7,490,373,490,320,490C266.7,490,213,490,160,490C106.7,490,53,490,27,490L0,490Z"/></svg>