<svg id="img_login_logo" xmlns="http://www.w3.org/2000/svg" width="169.932" height="57.383" viewBox="0 0 169.932 57.383">
  <path id="Path_4" data-name="Path 4" d="M233.387,377.805a13.734,13.734,0,0,1-3.46,9.654c-2.492,2.671-5.9,4.019-10.235,4.019a12.442,12.442,0,0,1-9.7-4.116,13.623,13.623,0,0,1-3.533-9.507q0-7.166,3.969-10.952a13.229,13.229,0,0,1,9.509-3.43,12.632,12.632,0,0,1,9.9,4.165,14.646,14.646,0,0,1,3.557,10.168Zm-8.444-.025a11.389,11.389,0,0,0-1.04-5.145,3.984,3.984,0,0,0-3.727-2.573c-3.484,0-5.2,2.573-5.2,7.718a9.938,9.938,0,0,0,1.137,5.194,4.148,4.148,0,0,0,3.8,2.034,4.3,4.3,0,0,0,3.823-2.132,9.387,9.387,0,0,0,1.21-5.1ZM261.092,390.6H252.5c-.121-.637-.194-1.152-.242-1.519a22.342,22.342,0,0,1-.242-3.112v-.539c0-.147.024-.368.048-.613a2.618,2.618,0,0,0-1.137-2.7,4.292,4.292,0,0,0-2.444-.661H245.1V390.6h-8.3V364.256h15.244a8.57,8.57,0,0,1,5.686,1.984,6.607,6.607,0,0,1,2.517,5.268,7.4,7.4,0,0,1-1.065,4.043,7.108,7.108,0,0,1-3.073,2.7c1.113.539,1.718.834,1.791.882a3.939,3.939,0,0,1,1.355,1.225,5.459,5.459,0,0,1,.774,2.279c.024.147.024.417.048.785.025.343.025.637.025.858,0,.269,0,.71-.025,1.3s-.024,1-.024,1.274a18.223,18.223,0,0,0,.1,1.887,1.442,1.442,0,0,0,.412.93.776.776,0,0,0,.532.123Zm-8.662-17.69a2.523,2.523,0,0,0-.943-1.814,2.988,2.988,0,0,0-1.984-.71h-4.234v5.145h4.5a2.8,2.8,0,0,0,1.863-.662,2.252,2.252,0,0,0,.823-1.739.834.834,0,0,1-.025-.22Zm34.335,9.8a7.012,7.012,0,0,1-2.589,5.758,10.71,10.71,0,0,1-6.993,2.132H263.342l.025-26.339h13.308a12.547,12.547,0,0,1,6.121,1.323,5.43,5.43,0,0,1,3.025,5.072,7.281,7.281,0,0,1-.774,3.357,6.59,6.59,0,0,1-2.443,2.6,8.773,8.773,0,0,1,3.049,2.279,6.207,6.207,0,0,1,1.113,3.822Zm-8.759-10.266a1.819,1.819,0,0,0-.7-1.446,2.31,2.31,0,0,0-1.622-.612h-3.944v4.361h3.823a2.479,2.479,0,0,0,1.718-.661,2.083,2.083,0,0,0,.726-1.641Zm1.016,9.678a2.206,2.206,0,0,0-1.016-1.862,3.862,3.862,0,0,0-2.178-.637h-4.089l.024,4.851h4.5a3.073,3.073,0,0,0,1.912-.661,2.077,2.077,0,0,0,.847-1.691ZM299.08,390.6H290.66V364.256h8.421Zm27.294-19.5h-7.549v19.5h-8.541v-19.5h-7.331v-6.836h23.422Z" transform="translate(-206.456 -363.472)" fill="#000000"/>
  <path id="Path_5" data-name="Path 5" d="M353.853,388.159l2.008-.2a4.55,4.55,0,0,0,.653,2.009,3.627,3.627,0,0,0,1.622,1.274,6.263,6.263,0,0,0,2.468.49,5.746,5.746,0,0,0,2.153-.367,3.119,3.119,0,0,0,1.4-1.005,2.464,2.464,0,0,0,.461-1.4,2.069,2.069,0,0,0-.461-1.348,3.481,3.481,0,0,0-1.427-.955,25.67,25.67,0,0,0-2.88-.784,14.544,14.544,0,0,1-3.1-1.029,4.249,4.249,0,0,1-1.719-1.52,3.691,3.691,0,0,1-.581-2.033,4.215,4.215,0,0,1,.7-2.3,4.312,4.312,0,0,1,2.008-1.617,7.728,7.728,0,0,1,2.952-.564,7.969,7.969,0,0,1,3.17.588,4.486,4.486,0,0,1,2.1,1.715,5.191,5.191,0,0,1,.8,2.573l-2.057.147a3.279,3.279,0,0,0-1.113-2.328,4.232,4.232,0,0,0-2.807-.784,4.352,4.352,0,0,0-2.807.711,2.1,2.1,0,0,0-.9,1.715,1.866,1.866,0,0,0,.629,1.445,8.024,8.024,0,0,0,3.218,1.177,21.644,21.644,0,0,1,3.556,1.029A5.049,5.049,0,0,1,366,386.469a4.151,4.151,0,0,1,.653,2.327,4.581,4.581,0,0,1-.726,2.45,4.939,4.939,0,0,1-2.105,1.789,7.461,7.461,0,0,1-3.1.637,9,9,0,0,1-3.678-.662,5.147,5.147,0,0,1-2.322-1.936,5.49,5.49,0,0,1-.871-2.916Zm20.252,5.243v-6.909l-6.194-9.408H370.5l3.17,4.925c.581.906,1.137,1.837,1.646,2.744.484-.834,1.064-1.814,1.742-2.867l3.122-4.8h2.492l-6.436,9.408V393.4Zm9.751-5.243,2.008-.2a4.561,4.561,0,0,0,.653,2.009,3.627,3.627,0,0,0,1.622,1.274,6.09,6.09,0,0,0,2.468.49,5.838,5.838,0,0,0,2.153-.367,3.124,3.124,0,0,0,1.4-1.005,2.437,2.437,0,0,0,.436-1.4,2.189,2.189,0,0,0-.436-1.348,3.427,3.427,0,0,0-1.452-.955,24.648,24.648,0,0,0-2.855-.784,15.438,15.438,0,0,1-3.122-1.029,4.588,4.588,0,0,1-1.718-1.52,3.881,3.881,0,0,1-.557-2.033,4.215,4.215,0,0,1,.7-2.3,4.312,4.312,0,0,1,2.008-1.617,7.64,7.64,0,0,1,2.952-.564,7.972,7.972,0,0,1,3.17.588,4.733,4.733,0,0,1,2.1,1.715,4.93,4.93,0,0,1,.774,2.573l-2.032.147a3.374,3.374,0,0,0-1.113-2.328,4.232,4.232,0,0,0-2.807-.784,4.472,4.472,0,0,0-2.831.711,2.144,2.144,0,0,0-.871,1.715,1.866,1.866,0,0,0,.629,1.445,8.026,8.026,0,0,0,3.194,1.177,21.37,21.37,0,0,1,3.581,1.029A5.218,5.218,0,0,1,396,386.469a4.151,4.151,0,0,1,.653,2.327,4.58,4.58,0,0,1-.725,2.45,5.163,5.163,0,0,1-2.129,1.789,7.381,7.381,0,0,1-3.1.637,8.962,8.962,0,0,1-3.654-.662,4.906,4.906,0,0,1-2.323-1.936,5.489,5.489,0,0,1-.87-2.916Z" transform="translate(-227.45 -365.372)" fill="#d1151b"/>
  <path id="Path_6" data-name="Path 6" d="M216.211,422.984a4.4,4.4,0,0,1-1.355,3.553,4.5,4.5,0,0,1-3,.93,3.373,3.373,0,0,1-2.952-1.347,5.88,5.88,0,0,1-.9-3.528v-6.934a5.5,5.5,0,0,1,.823-3.234,3.594,3.594,0,0,1,3.17-1.471,4.061,4.061,0,0,1,3.194,1.152,4.824,4.824,0,0,1,.992,3.284v1.47h-3.049v-1.446a2.066,2.066,0,0,0-.242-1.1.894.894,0,0,0-.871-.515.858.858,0,0,0-.75.465,2.315,2.315,0,0,0-.266,1.152v7.914a1.521,1.521,0,0,0,.242.931.921.921,0,0,0,.822.367.989.989,0,0,0,.944-.637,4.285,4.285,0,0,0,.194-1.4V420.95h3Zm9.993-.563a6.574,6.574,0,0,1-.919,3.9,3.836,3.836,0,0,1-3.242,1.3,3.615,3.615,0,0,1-3.218-1.495,6.463,6.463,0,0,1-.919-3.7V415.8a5.56,5.56,0,0,1,.968-3.405,4.252,4.252,0,0,1,6.388-.049,5.669,5.669,0,0,1,.943,3.454Zm-3.073.318v-6.909a3.69,3.69,0,0,0-.218-1.446.836.836,0,0,0-.822-.539.9.9,0,0,0-.871.637,3.545,3.545,0,0,0-.218,1.347v6.909a3.466,3.466,0,0,0,.218,1.348.907.907,0,0,0,.846.661.867.867,0,0,0,.823-.563,3.385,3.385,0,0,0,.242-1.446Zm12.824,4.386h-3.073l-2.347-8.747.29,8.747h-2.783V411.37h3l2.371,8.944-.29-8.944h2.831Zm9.63-4.386a6.413,6.413,0,0,1-.774,3.43,3.492,3.492,0,0,1-3.122,1.446,4.059,4.059,0,0,1-2.952-1.078,4,4,0,0,1-1.089-2.941V421.93h2.88V423.3a1.784,1.784,0,0,0,.266,1.029,1.03,1.03,0,0,0,.919.442.887.887,0,0,0,.871-.588,2.17,2.17,0,0,0,.194-1.029v-.294a2.1,2.1,0,0,0-.509-1.078,7.006,7.006,0,0,0-1.016-.882c-.387-.294-.8-.563-1.186-.858a5.5,5.5,0,0,1-1.6-1.862,5.87,5.87,0,0,1-.581-2.622,5.658,5.658,0,0,1,.75-3.136,3.423,3.423,0,0,1,3.025-1.4,3.347,3.347,0,0,1,3,1.569,6.354,6.354,0,0,1,.919,3.577h-2.806v-.318a3.382,3.382,0,0,0-.122-1.079c-.169-.587-.484-.906-.943-.906a.89.89,0,0,0-.7.294,1.622,1.622,0,0,0-.291,1.029,1.989,1.989,0,0,0,.774,1.592c.242.2.726.563,1.476,1.078a6.216,6.216,0,0,1,2.081,2.058,6.008,6.008,0,0,1,.532,2.818Zm9.9-.049a5.893,5.893,0,0,1-.871,3.479,3.832,3.832,0,0,1-3.315,1.4,3.582,3.582,0,0,1-3.194-1.421,6.061,6.061,0,0,1-.822-3.455V411.37H250.3v11.81a2.52,2.52,0,0,0,.194,1.079.9.9,0,0,0,.847.49.866.866,0,0,0,.822-.49,2.135,2.135,0,0,0,.218-1.054V411.37h3.1Zm8.324,4.434h-6.727V411.37H260.1v12.569h3.7Zm7.355-12.569h-2.492v12.569h-3.025V414.555H263.3V411.37h7.864Zm9.195,12.569h-3.1l-.46-3.136h-2.274l-.436,3.136h-3.1l2.9-15.754h3.63Zm-3.726-5.9-.871-7.008-.847,7.008Zm13.139,5.9h-3.049l-2.346-8.747.29,8.747H281.88V411.37h3l2.371,8.944-.29-8.944h2.807Zm9.92-4.14a4.39,4.39,0,0,1-1.331,3.553,4.591,4.591,0,0,1-3,.93,3.417,3.417,0,0,1-2.976-1.347,6.055,6.055,0,0,1-.9-3.528v-6.934a5.5,5.5,0,0,1,.846-3.234,3.551,3.551,0,0,1,3.146-1.471,4.063,4.063,0,0,1,3.194,1.152,4.7,4.7,0,0,1,.992,3.284v1.47h-3.049v-1.446a2.329,2.329,0,0,0-.218-1.1.939.939,0,0,0-.87-.515.9.9,0,0,0-.774.465,2.314,2.314,0,0,0-.242,1.152v7.914a1.7,1.7,0,0,0,.218.931.948.948,0,0,0,.822.367.988.988,0,0,0,.943-.637,3.649,3.649,0,0,0,.218-1.4V420.95h2.977Zm10.065-11.614-3.073,9.164v6.59h-3v-6.542l-3.049-9.213h3.025l1.549,5.17,1.573-5.17Zm14.567,4.8a5.364,5.364,0,0,1-1.161,3.847,3.508,3.508,0,0,1-2.614.955h-1.4v6.15h-3.049V411.37h3.92a6.69,6.69,0,0,1,1.936.22,3.023,3.023,0,0,1,1.67,1.323,6.433,6.433,0,0,1,.7,3.259Zm-3.1-.147a3.316,3.316,0,0,0-.169-1.3,1,1,0,0,0-1.016-.587h-.9v3.92h.557a1.346,1.346,0,0,0,1.331-.612,3.861,3.861,0,0,0,.193-1.421Zm13.406-4.656-2.807,15.754h-3.606l-2.758-15.754h3l1.6,10.977L331.6,411.37Zm8.952,3.185h-2.468v12.569h-3.049V414.555h-2.347V411.37h7.864Zm3.266,12.569H343.9v-3.6h2.952Zm8.348,0h-6.726V411.37h3.025v12.569h3.7Zm7.356-12.569h-2.492v12.569h-3.025V414.555h-2.347V411.37h7.864Zm9.461,8.919a4.2,4.2,0,0,1-.291,1.568,2.823,2.823,0,0,1-.8,1.152,3.651,3.651,0,0,1-1.185.735,4.358,4.358,0,0,1-1.452.2h-4.332V411.37h4.162a5.232,5.232,0,0,1,1.259.147,3.239,3.239,0,0,1,1.573.809,3.41,3.41,0,0,1,.87,1.446,7.391,7.391,0,0,1,.194,1.813Zm-3.049-1.176v-5.831a8.8,8.8,0,0,0-.048-1.005,1.779,1.779,0,0,0-.218-.735.893.893,0,0,0-.412-.343,2.6,2.6,0,0,0-1.089-.172h-.218v10.046h.629a1.872,1.872,0,0,0,.533-.074,2.473,2.473,0,0,0,.363-.22,1.211,1.211,0,0,0,.387-.76,4.033,4.033,0,0,0,.073-.906Zm7.646,4.826h-2.952v-3.6h2.952Z" transform="translate(-206.677 -370.231)" fill="#000000"/>
</svg>
