<svg xmlns="http://www.w3.org/2000/svg" width="206.456" height="189.533" viewBox="0 0 206.456 189.533">
  <g id="img_logo" transform="translate(-97 -63)">
    <g id="Group_1" data-name="Group 1" transform="translate(134.246 63)">
      <path id="Path_1" data-name="Path 1" d="M249.273,313.444c22.754-21.285,32.337-48.939,21.371-61.739-10.936-12.8-38.275-5.924-61.027,15.359S177.28,316,188.244,328.8c10.936,12.8,38.275,5.923,61.028-15.361Zm-2.175-1.221c16.521-15.361,23.488-35.275,15.522-44.533-7.967-9.228-27.839-4.256-44.389,11.1-16.521,15.359-23.488,35.3-15.522,44.532,7.937,9.229,27.839,4.257,44.389-11.1Z" transform="translate(-165.406 -243.935)" fill="#d1151b" fill-rule="evenodd"/>
      <path id="Path_2" data-name="Path 2" d="M252.277,270.214c-21.019-23.04-48.329-32.715-60.969-21.642-12.641,11.1-5.821,38.788,15.2,61.8,21.019,23.04,48.329,32.744,60.97,21.671,12.64-11.1,5.849-38.788-15.2-61.829Zm-1.175,2.233c-15.169-16.76-34.866-23.814-43.978-15.748s-4.2,28.191,10.965,44.95c15.14,16.76,34.835,23.814,43.949,15.748s4.233-28.191-10.936-44.95Z" transform="translate(-165.354 -243.989)" fill="#ec6713" fill-rule="evenodd"/>
      <path id="Path_3" data-name="Path 3" d="M185.805,263.268c-1.5,1.489-3,3.007-4.5,4.525-15.727,20.183,50.033,41.675,87.838,27.863,29.25-11.044,5.232-25.958-7.643-34.382,9,2.948,19.667,7.532,26.6,14.319,48.24,49.147-105.447,48.552-121.057,8.245-4.822-12.2,10.729-21.105,18.755-21.968v1.4Z" transform="translate(-166.142 -243.265)" fill="#111212" fill-rule="evenodd"/>
    </g>
    <g id="Group_2" data-name="Group 2" transform="translate(97 182.817)">
      <path id="Path_4" data-name="Path 4" d="M239.175,380.886a16.686,16.686,0,0,1-4.2,11.728c-3.028,3.244-7.172,4.882-12.435,4.882a15.116,15.116,0,0,1-11.788-5,16.551,16.551,0,0,1-4.293-11.55q0-8.707,4.822-13.306c2.91-2.769,6.761-4.168,11.552-4.168a15.347,15.347,0,0,1,12.023,5.06c2.881,3.214,4.322,7.322,4.322,12.354Zm-10.259-.03a13.837,13.837,0,0,0-1.264-6.251,4.84,4.84,0,0,0-4.528-3.126c-4.233,0-6.32,3.126-6.32,9.377a12.074,12.074,0,0,0,1.382,6.311,5.039,5.039,0,0,0,4.616,2.471,5.228,5.228,0,0,0,4.645-2.59,11.4,11.4,0,0,0,1.47-6.192Zm43.919,15.569H262.4c-.147-.774-.235-1.4-.294-1.845a27.143,27.143,0,0,1-.294-3.781v-.654c0-.179.029-.447.058-.745a3.181,3.181,0,0,0-1.382-3.275,5.215,5.215,0,0,0-2.969-.8H253.4v11.1H243.32v-32H261.84a10.412,10.412,0,0,1,6.908,2.411,8.028,8.028,0,0,1,3.058,6.4,8.995,8.995,0,0,1-1.294,4.911,8.635,8.635,0,0,1-3.733,3.275c1.352.655,2.087,1.013,2.175,1.072a4.786,4.786,0,0,1,1.646,1.488,6.632,6.632,0,0,1,.941,2.768c.029.179.029.506.058.953.03.417.03.774.03,1.042,0,.327,0,.863-.03,1.577s-.029,1.22-.029,1.548a22.144,22.144,0,0,0,.118,2.292,1.752,1.752,0,0,0,.5,1.13.943.943,0,0,0,.646.149ZM262.31,374.933a3.065,3.065,0,0,0-1.146-2.2,3.63,3.63,0,0,0-2.411-.863H253.61v6.251h5.468a3.4,3.4,0,0,0,2.263-.8,2.735,2.735,0,0,0,1-2.113,1.014,1.014,0,0,1-.03-.268Zm41.715,11.907a8.519,8.519,0,0,1-3.145,7,13.012,13.012,0,0,1-8.5,2.59H275.568l.03-32h16.168a15.244,15.244,0,0,1,7.437,1.608,6.6,6.6,0,0,1,3.675,6.162,8.846,8.846,0,0,1-.941,4.078,8.007,8.007,0,0,1-2.968,3.156,10.659,10.659,0,0,1,3.7,2.768,7.541,7.541,0,0,1,1.352,4.644Zm-10.642-12.472a2.21,2.21,0,0,0-.852-1.757,2.807,2.807,0,0,0-1.97-.744h-4.792v5.3h4.645a3.012,3.012,0,0,0,2.087-.8,2.53,2.53,0,0,0,.882-1.994Zm1.235,11.758a2.68,2.68,0,0,0-1.235-2.262,4.691,4.691,0,0,0-2.646-.774h-4.968l.029,5.894h5.468a3.734,3.734,0,0,0,2.322-.8,2.523,2.523,0,0,0,1.029-2.055Zm24.37,10.3h-10.23v-32h10.23Zm33.16-23.7h-9.172v23.7H332.6v-23.7h-8.907v-8.3h28.456Z" transform="translate(-206.456 -363.472)" fill="#111212"/>
      <path id="Path_5" data-name="Path 5" d="M353.853,390.6l2.44-.239a5.527,5.527,0,0,0,.793,2.441,4.406,4.406,0,0,0,1.97,1.548,7.608,7.608,0,0,0,3,.595,6.982,6.982,0,0,0,2.616-.446,3.789,3.789,0,0,0,1.7-1.221,2.993,2.993,0,0,0,.559-1.7,2.514,2.514,0,0,0-.559-1.638,4.229,4.229,0,0,0-1.734-1.161,31.2,31.2,0,0,0-3.5-.952,17.671,17.671,0,0,1-3.762-1.25,5.163,5.163,0,0,1-2.088-1.846,4.484,4.484,0,0,1-.705-2.47,5.121,5.121,0,0,1,.852-2.8,5.239,5.239,0,0,1,2.44-1.964,9.389,9.389,0,0,1,3.586-.686,9.682,9.682,0,0,1,3.852.715,5.45,5.45,0,0,1,2.557,2.084,6.307,6.307,0,0,1,.971,3.126l-2.5.179a3.984,3.984,0,0,0-1.352-2.829,5.141,5.141,0,0,0-3.41-.952,5.287,5.287,0,0,0-3.41.864,2.556,2.556,0,0,0-1.088,2.084,2.267,2.267,0,0,0,.765,1.756c.5.476,1.793.953,3.91,1.429a26.3,26.3,0,0,1,4.321,1.25,6.135,6.135,0,0,1,2.529,2.024,5.044,5.044,0,0,1,.794,2.828,5.565,5.565,0,0,1-.882,2.977,6,6,0,0,1-2.558,2.173,9.065,9.065,0,0,1-3.762.774,10.939,10.939,0,0,1-4.469-.8,6.253,6.253,0,0,1-2.821-2.352,6.671,6.671,0,0,1-1.059-3.542Zm24.605,6.37v-8.394l-7.526-11.431h3.145l3.851,5.984c.705,1.1,1.382,2.232,2,3.334.588-1.013,1.293-2.2,2.116-3.483l3.792-5.835h3.028l-7.819,11.431v8.394Zm11.847-6.37,2.439-.239a5.541,5.541,0,0,0,.794,2.441,4.406,4.406,0,0,0,1.97,1.548,7.4,7.4,0,0,0,3,.595,7.092,7.092,0,0,0,2.616-.446,3.8,3.8,0,0,0,1.7-1.221,2.96,2.96,0,0,0,.529-1.7,2.659,2.659,0,0,0-.529-1.638,4.163,4.163,0,0,0-1.764-1.161,29.953,29.953,0,0,0-3.468-.952,18.758,18.758,0,0,1-3.792-1.25,5.574,5.574,0,0,1-2.087-1.846,4.716,4.716,0,0,1-.676-2.47,5.121,5.121,0,0,1,.852-2.8,5.239,5.239,0,0,1,2.44-1.964,9.282,9.282,0,0,1,3.586-.686,9.686,9.686,0,0,1,3.852.715,5.75,5.75,0,0,1,2.557,2.084,5.99,5.99,0,0,1,.941,3.126l-2.469.179a4.1,4.1,0,0,0-1.352-2.829,5.141,5.141,0,0,0-3.41-.952A5.433,5.433,0,0,0,394.6,380a2.605,2.605,0,0,0-1.059,2.084,2.267,2.267,0,0,0,.765,1.756,9.751,9.751,0,0,0,3.88,1.429,25.966,25.966,0,0,1,4.351,1.25,6.339,6.339,0,0,1,2.529,2.024,5.043,5.043,0,0,1,.793,2.828,5.564,5.564,0,0,1-.881,2.977,6.272,6.272,0,0,1-2.587,2.173,8.968,8.968,0,0,1-3.762.774,10.888,10.888,0,0,1-4.439-.8,5.961,5.961,0,0,1-2.822-2.352,6.669,6.669,0,0,1-1.058-3.542Z" transform="translate(-200.282 -362.913)" fill="#d1151b"/>
      <path id="Path_6" data-name="Path 6" d="M217.974,425.575a5.345,5.345,0,0,1-1.646,4.317,5.466,5.466,0,0,1-3.646,1.13,4.1,4.1,0,0,1-3.586-1.637,7.144,7.144,0,0,1-1.088-4.286v-8.425a6.685,6.685,0,0,1,1-3.929,4.366,4.366,0,0,1,3.851-1.787,4.933,4.933,0,0,1,3.88,1.4,5.861,5.861,0,0,1,1.205,3.989v1.786h-3.7v-1.757a2.51,2.51,0,0,0-.294-1.339,1.086,1.086,0,0,0-1.059-.625,1.042,1.042,0,0,0-.912.565,2.813,2.813,0,0,0-.323,1.4v9.616a1.848,1.848,0,0,0,.294,1.131,1.119,1.119,0,0,0,1,.446,1.2,1.2,0,0,0,1.147-.774,5.206,5.206,0,0,0,.235-1.7v-2h3.645Zm12.141-.685A7.987,7.987,0,0,1,229,429.624a4.661,4.661,0,0,1-3.939,1.577,4.392,4.392,0,0,1-3.91-1.816,7.852,7.852,0,0,1-1.117-4.495v-8.038a6.755,6.755,0,0,1,1.176-4.137,5.166,5.166,0,0,1,7.761-.059,6.888,6.888,0,0,1,1.146,4.2Zm-3.733.387v-8.394a4.483,4.483,0,0,0-.265-1.757,1.016,1.016,0,0,0-1-.654,1.092,1.092,0,0,0-1.059.774,4.306,4.306,0,0,0-.265,1.637v8.394a4.211,4.211,0,0,0,.265,1.638,1.1,1.1,0,0,0,1.028.8,1.054,1.054,0,0,0,1-.685,4.112,4.112,0,0,0,.294-1.757Zm15.58,5.328h-3.733l-2.852-10.627.352,10.627h-3.381v-19.14h3.646l2.881,10.866-.352-10.866h3.439Zm11.7-5.328a7.792,7.792,0,0,1-.94,4.168,4.243,4.243,0,0,1-3.792,1.757,4.931,4.931,0,0,1-3.586-1.31,4.86,4.86,0,0,1-1.323-3.573v-2.024h3.5v1.667a2.167,2.167,0,0,0,.323,1.25,1.251,1.251,0,0,0,1.117.537,1.077,1.077,0,0,0,1.059-.715,2.637,2.637,0,0,0,.235-1.25v-.357a2.555,2.555,0,0,0-.618-1.31,8.512,8.512,0,0,0-1.235-1.072c-.47-.357-.97-.685-1.441-1.042a6.686,6.686,0,0,1-1.94-2.262,7.131,7.131,0,0,1-.705-3.185,6.874,6.874,0,0,1,.912-3.81,4.158,4.158,0,0,1,3.675-1.7,4.066,4.066,0,0,1,3.645,1.906,7.72,7.72,0,0,1,1.117,4.346h-3.409v-.387a4.109,4.109,0,0,0-.148-1.311c-.205-.714-.588-1.1-1.146-1.1a1.081,1.081,0,0,0-.852.357,1.97,1.97,0,0,0-.353,1.25,2.416,2.416,0,0,0,.941,1.935c.294.239.882.685,1.793,1.31a7.552,7.552,0,0,1,2.529,2.5,7.3,7.3,0,0,1,.646,3.424Zm12.024-.059a7.16,7.16,0,0,1-1.059,4.227,4.656,4.656,0,0,1-4.028,1.7,4.352,4.352,0,0,1-3.88-1.726,7.364,7.364,0,0,1-1-4.2V411.465h3.674v14.348a3.062,3.062,0,0,0,.235,1.311,1.1,1.1,0,0,0,1.029.595,1.052,1.052,0,0,0,1-.595,2.593,2.593,0,0,0,.265-1.28V411.465h3.763ZM275.8,430.6h-8.173v-19.14H271.3v15.271h4.5Zm8.936-15.271h-3.028V430.6h-3.675V415.334H275.18v-3.87h9.554ZM295.906,430.6h-3.763l-.558-3.81h-2.763l-.529,3.81h-3.763l3.528-19.14h4.41Zm-4.527-7.173-1.059-8.514-1.029,8.514Zm15.963,7.173h-3.7l-2.851-10.627.352,10.627h-3.381v-19.14H301.4l2.881,10.866-.352-10.866h3.41Zm12.053-5.03a5.333,5.333,0,0,1-1.617,4.317,5.577,5.577,0,0,1-3.646,1.13,4.151,4.151,0,0,1-3.615-1.637,7.357,7.357,0,0,1-1.088-4.286v-8.425a6.682,6.682,0,0,1,1.028-3.929,4.314,4.314,0,0,1,3.822-1.787,4.936,4.936,0,0,1,3.881,1.4,5.715,5.715,0,0,1,1.205,3.989v1.786h-3.7v-1.757a2.83,2.83,0,0,0-.265-1.339,1.141,1.141,0,0,0-1.058-.625,1.087,1.087,0,0,0-.941.565,2.811,2.811,0,0,0-.294,1.4v9.616a2.069,2.069,0,0,0,.265,1.131,1.152,1.152,0,0,0,1,.446,1.2,1.2,0,0,0,1.146-.774,4.433,4.433,0,0,0,.265-1.7v-2h3.616Zm12.229-14.11L327.889,422.6V430.6h-3.646v-7.947l-3.7-11.193h3.675l1.882,6.282,1.911-6.282Zm17.7,5.835c0,2.143-.471,3.721-1.411,4.674a4.262,4.262,0,0,1-3.176,1.161h-1.7V430.6h-3.7v-19.14h4.762a8.128,8.128,0,0,1,2.352.268,3.673,3.673,0,0,1,2.029,1.608,7.816,7.816,0,0,1,.852,3.959Zm-3.763-.178a4.029,4.029,0,0,0-.205-1.578,1.21,1.21,0,0,0-1.235-.714h-1.088v4.762h.676a1.635,1.635,0,0,0,1.617-.744,4.69,4.69,0,0,0,.234-1.726Zm16.287-5.656-3.41,19.14h-4.381l-3.351-19.14h3.646l1.94,13.336,1.882-13.336Zm10.876,3.87h-3V430.6h-3.7V415.334h-2.852v-3.87h9.554Zm3.969,15.271H373.1v-4.376h3.586Zm10.142,0h-8.171v-19.14h3.675v15.271h4.5Zm8.937-15.271h-3.028V430.6h-3.675V415.334h-2.852v-3.87h9.554Zm11.494,10.836a5.1,5.1,0,0,1-.353,1.906,3.43,3.43,0,0,1-.97,1.4,4.436,4.436,0,0,1-1.44.893,5.3,5.3,0,0,1-1.764.238h-5.263v-19.14h5.056a6.357,6.357,0,0,1,1.529.178,3.934,3.934,0,0,1,1.911.982,4.142,4.142,0,0,1,1.057,1.757,8.979,8.979,0,0,1,.235,2.2Zm-3.7-1.428v-7.085a10.7,10.7,0,0,0-.058-1.221,2.161,2.161,0,0,0-.265-.893,1.084,1.084,0,0,0-.5-.417,3.153,3.153,0,0,0-1.323-.208h-.265v12.206h.765a2.274,2.274,0,0,0,.647-.09,3,3,0,0,0,.441-.268,1.471,1.471,0,0,0,.47-.923,4.9,4.9,0,0,0,.089-1.1Zm9.289,5.864H409.26v-4.376h3.586Z" transform="translate(-206.391 -361.484)" fill="#111212"/>
    </g>
  </g>
</svg>
